<svg width="684" height="380" viewBox="0 0 684 380" fill="none" xmlns="http://www.w3.org/2000/svg">
<g clip-path="url(#clip0_174_171)">
<path d="M79 118.343C79 113.128 79.6888 108.807 81.065 105.369C82.4412 101.936 84.3214 99.4043 86.7071 97.7793C89.0927 96.1581 91.9025 95.4675 95.1366 95.715C98.3706 95.9626 101.823 97.1452 105.494 99.2703C109.254 101.447 112.81 104.322 116.159 107.886C119.508 111.449 122.307 115.263 124.555 119.324L114.509 129.698C113.59 127.572 112.444 125.699 111.067 124.071C109.691 122.447 108.154 121.145 106.457 120.163C105.081 119.366 103.796 118.944 102.603 118.898C101.41 118.851 100.367 119.183 99.4725 119.889C98.5779 120.599 97.8779 121.68 97.3739 123.137C96.8685 124.592 96.6165 126.397 96.6165 128.542C96.6165 130.687 96.8797 132.756 97.4075 134.75C97.9353 136.744 98.6465 138.612 99.5411 140.354C100.436 142.1 101.479 143.639 102.671 144.974C103.864 146.308 105.126 147.36 106.457 148.131C108.337 149.22 109.954 149.636 111.308 149.375C112.661 149.117 113.727 148.507 114.509 147.548L124.555 169.465C122.353 171.132 119.645 171.912 116.435 171.802C113.223 171.691 109.576 170.452 105.494 168.088C101.823 165.963 98.3706 163.137 95.1366 159.61C91.9026 156.08 89.0928 152.109 86.7071 147.692C84.3215 143.275 82.4413 138.567 81.0651 133.57C79.6889 128.573 79 123.494 79 118.343Z" fill="#5FD0F4"/>
<path d="M167.22 177.603C167.22 181.773 166.657 185.161 165.534 187.76C164.41 190.359 162.895 192.226 160.992 193.363C159.088 194.503 156.886 194.928 154.386 194.645C151.885 194.361 149.259 193.425 146.506 191.831C143.799 190.264 141.196 188.173 138.697 185.562C136.195 182.95 134.006 179.982 132.125 176.651C130.244 173.323 128.741 169.71 127.617 165.81C126.493 161.909 125.932 157.871 125.932 153.7C125.932 149.53 126.493 146.25 127.617 143.681C128.741 141.113 130.244 139.268 132.125 138.149C134.006 137.029 136.195 136.627 138.697 136.941C141.196 137.253 143.799 138.191 146.506 139.758C149.259 141.352 151.885 143.441 154.386 146.023C156.886 148.605 159.088 151.55 160.992 154.861C162.895 158.171 164.41 161.762 165.534 165.632C166.657 169.502 167.22 173.496 167.22 177.603ZM146.506 157.701C144.763 156.692 143.352 156.673 142.274 157.643C141.196 158.614 140.657 160.17 140.657 162.319C140.657 164.587 141.209 166.838 142.309 169.07C143.409 171.302 144.832 172.923 146.575 173.932C148.318 174.941 149.74 174.967 150.842 174.01C151.943 173.053 152.494 171.44 152.494 169.172C152.494 167.023 151.931 164.829 150.807 162.583C149.683 160.338 148.249 158.71 146.506 157.701Z" fill="#5FD0F4"/>
<path d="M202.658 207.137C202.658 210.387 202.144 212.818 201.116 214.432C200.089 216.046 198.788 217.056 197.212 217.461C195.637 217.867 193.913 217.82 192.042 217.321C190.168 216.816 188.386 216.077 186.693 215.097C183.573 213.29 180.511 210.922 177.507 207.985C174.502 205.052 171.898 201.841 169.697 198.358L177.473 190.809C178.573 192.794 179.87 194.634 181.361 196.324C182.85 198.014 184.285 199.26 185.662 200.057C186.212 200.375 186.728 200.536 187.21 200.538C187.692 200.543 187.932 200.173 187.932 199.44C187.932 198.642 187.508 197.768 186.66 196.816C185.81 195.864 184.33 194.442 182.22 192.543C181.074 191.512 179.903 190.299 178.712 188.902C177.518 187.507 176.429 185.94 175.443 184.205C174.456 182.47 173.641 180.572 173 178.512C172.357 176.452 172.037 174.26 172.037 171.928C172.037 168.802 172.552 166.431 173.585 164.82C174.617 163.209 175.925 162.173 177.507 161.707C179.09 161.246 180.811 161.228 182.668 161.659C184.526 162.091 186.28 162.785 187.932 163.741C190.73 165.361 193.506 167.522 196.258 170.22C199.011 172.917 201.489 175.883 203.691 179.12L196.258 186.688C195.112 185.043 193.941 183.598 192.75 182.354C191.556 181.113 190.385 180.158 189.24 179.495C188.459 179.043 187.818 178.81 187.314 178.795C186.808 178.776 186.556 179.169 186.556 179.966C186.556 180.58 186.84 181.22 187.412 181.888C187.983 182.556 189.296 183.761 191.353 185.502C192.768 186.688 194.149 188.057 195.498 189.605C196.845 191.153 198.056 192.834 199.13 194.65C200.202 196.469 201.059 198.421 201.699 200.51C202.339 202.595 202.658 204.805 202.658 207.137Z" fill="#5FD0F4"/>
<path d="M224.127 236.218C219.264 233.402 215.663 229.921 213.323 225.778C210.984 221.631 209.814 216.615 209.814 210.726V193.431L204.722 190.483V175.303L209.745 178.211V167.354L225.159 176.278V187.135L233.003 191.676V206.856L225.159 202.315V215.193C225.159 217.525 225.537 219.323 226.295 220.589C227.052 221.855 228.095 222.874 229.426 223.645C229.93 223.937 230.458 224.183 231.008 224.378C231.559 224.573 231.994 224.701 232.316 224.764V239.3C231.49 239.313 230.331 239.042 228.841 238.487C227.35 237.93 225.779 237.174 224.127 236.218Z" fill="#5FD0F4"/>
<path d="M294.384 251.222C294.384 255.392 293.821 258.78 292.698 261.38C291.574 263.978 290.059 265.845 288.156 266.982C286.252 268.122 284.05 268.547 281.55 268.264C279.049 267.981 276.423 267.044 273.67 265.451C270.963 263.883 268.36 261.792 265.861 259.181C263.359 256.569 261.17 253.601 259.289 250.271C257.408 246.943 255.906 243.329 254.781 239.429C253.657 235.528 253.096 231.49 253.096 227.319C253.096 223.213 253.657 219.869 254.781 217.3C255.906 214.732 257.408 212.887 259.289 211.768C261.17 210.648 263.359 210.246 265.861 210.56C268.36 210.872 270.963 211.81 273.67 213.378C276.423 214.971 279.049 217.061 281.55 219.642C284.05 222.224 286.252 225.169 288.156 228.48C290.059 231.79 291.574 235.381 292.698 239.251C293.821 243.121 294.384 247.115 294.384 251.222ZM273.67 231.32C271.927 230.311 270.516 230.292 269.438 231.262C268.36 232.233 267.821 233.789 267.821 235.938C267.821 238.207 268.373 240.458 269.473 242.689C270.574 244.921 271.996 246.542 273.739 247.551C275.482 248.56 276.904 248.586 278.006 247.629C279.107 246.672 279.658 245.059 279.658 242.791C279.658 240.522 279.095 238.448 277.971 236.202C276.847 233.957 275.413 232.33 273.67 231.32Z" fill="#5FD0F4"/>
<path d="M324.524 237.438C323.972 236.965 323.422 236.568 322.872 236.249C321.312 235.346 320.223 235.36 319.603 236.289C318.984 237.218 318.674 238.667 318.674 240.629V241.273L326.313 245.695V260.875L318.674 256.453V289.666L302.779 280.464V247.251L296.585 243.665V228.485L302.779 232.07V230.966C302.779 227.96 303.043 225.231 303.572 222.778C304.102 220.322 305.013 218.412 306.302 217.044C307.593 215.676 309.332 215.009 311.52 215.052C313.709 215.091 316.46 216.069 319.775 217.989C320.83 218.6 322.057 219.418 323.457 220.442C324.855 221.469 326.037 222.505 327 223.553L325.968 238.87C325.555 238.387 325.074 237.91 324.524 237.438Z" fill="#5FD0F4"/>
</g>
<g clip-path="url(#clip1_174_171)">
<path d="M377.589 283.742C375.608 284.884 373.661 285.779 371.751 286.424C369.839 287.07 367.997 287.459 366.224 287.598C364.45 287.737 362.78 287.663 361.214 287.375C359.648 287.088 358.244 286.568 357 285.821L367.018 265.538C368.169 266.533 369.702 267.121 371.613 267.307C373.524 267.493 375.493 267.001 377.52 265.832C378.441 265.301 379.283 264.602 380.042 263.733C380.802 262.863 381.182 261.843 381.182 260.674C381.182 259.506 381.055 259.612 380.802 259.327C380.548 259.043 380.099 258.856 379.454 258.768C378.809 258.679 377.923 258.685 376.794 258.782C375.666 258.878 374.249 259.052 372.545 259.297C370.888 259.515 369.298 259.555 367.779 259.417C366.258 259.279 364.911 258.813 363.736 258.015C362.562 257.216 361.629 255.987 360.939 254.325C360.247 252.664 359.901 250.391 359.901 247.499C359.901 243.443 360.524 239.641 361.767 236.096C363.011 232.551 364.61 229.305 366.57 226.362C368.526 223.42 370.725 220.845 373.168 218.637C375.608 216.428 378.026 214.632 380.423 213.249C383.646 211.39 386.926 210.329 390.268 210.057C393.606 209.786 396.543 210.486 399.077 212.155L388.851 231.955C387.746 230.749 386.387 230.14 384.774 230.119C383.162 230.098 381.711 230.459 380.422 231.203C379.223 231.894 378.256 232.681 377.52 233.566C376.783 234.452 376.415 235.418 376.415 236.459C376.415 237.5 376.794 237.959 377.555 238.011C378.314 238.064 379.547 237.967 381.25 237.722C383 237.446 384.843 237.245 386.779 237.109C388.713 236.975 390.497 237.219 392.133 237.841C393.768 238.46 395.114 239.605 396.174 241.263C397.234 242.921 397.764 245.44 397.764 248.815C397.764 252.74 397.177 256.503 396.001 260.095C394.828 263.686 393.283 267.001 391.373 270.036C389.461 273.072 387.307 275.76 384.912 278.089C382.517 280.423 380.077 282.306 377.589 283.742Z" fill="#5FD0F4"/>
<path d="M422.566 225.54C422.566 224.067 422.186 223.196 421.426 222.931C420.667 222.665 419.665 222.887 418.421 223.605C416.946 224.455 415.554 225.674 414.242 227.259C412.929 228.845 411.765 230.483 410.751 232.172L402.807 226.264C405.018 222.164 407.643 218.469 410.682 215.184C413.723 211.894 416.855 209.319 420.079 207.459C423.534 205.466 426.389 204.463 428.647 204.449C430.903 204.436 432.688 205.189 434.001 206.701C435.314 208.214 436.235 210.323 436.765 213.022C437.294 215.724 437.559 218.763 437.559 222.137V247.638L423.12 255.968V252.103L422.981 252.183C422.06 254.554 420.747 256.633 419.043 258.41C417.338 260.192 415.68 261.549 414.069 262.479C412.641 263.303 411.177 263.87 409.682 264.182C408.183 264.492 406.824 264.389 405.605 263.863C404.384 263.339 403.381 262.326 402.6 260.81C401.816 259.3 401.425 257.102 401.425 254.214C401.425 250.843 402.081 247.715 403.394 244.841C404.707 241.967 406.376 239.345 408.402 236.981C410.429 234.613 412.697 232.492 415.209 230.616C417.718 228.737 420.171 227.109 422.566 225.727L422.566 225.54ZM422.705 236.138C420.356 237.493 418.467 238.92 417.039 240.422C415.611 241.921 414.898 243.59 414.898 245.429C414.898 246.107 415.012 246.607 415.242 246.935C415.473 247.263 415.772 247.472 416.141 247.567C416.509 247.661 416.912 247.661 417.349 247.559C417.788 247.459 418.19 247.306 418.56 247.093C420.079 246.216 421.299 244.868 422.221 243.047C423.142 241.227 423.603 239.302 423.603 237.279V235.62L422.705 236.138Z" fill="#5FD0F4"/>
<path d="M468.511 174.135C467.958 174.301 467.405 174.541 466.853 174.859C465.287 175.763 464.193 177.038 463.57 178.686C462.949 180.333 462.639 182.141 462.639 184.104V184.748L470.308 180.324V195.513L462.639 199.937V233.169L446.679 242.377V209.145L440.46 212.733V197.544L446.679 193.956V192.851C446.679 189.843 446.944 186.806 447.476 183.739C448.007 180.668 448.922 177.701 450.217 174.838C451.513 171.974 453.258 169.293 455.456 166.8C457.653 164.304 460.415 162.096 463.743 160.176C464.803 159.564 466.035 158.963 467.44 158.365C468.844 157.772 470.031 157.44 470.998 157.373L469.962 173.893C469.547 173.889 469.064 173.969 468.511 174.135Z" fill="#5FD0F4"/>
<path d="M511.348 181.315C511.348 182.112 511.336 182.933 511.313 183.773C511.289 184.619 511.254 185.328 511.209 185.905L486.751 200.016C486.797 200.85 487.016 201.492 487.407 201.941C487.798 202.389 488.281 202.695 488.859 202.852C489.434 203.011 490.078 203.007 490.793 202.841C491.506 202.673 492.233 202.378 492.969 201.953C494.442 201.103 495.675 200.04 496.666 198.76C497.656 197.485 498.404 196.271 498.911 195.12L510.242 196.22C508.63 200.649 506.292 204.762 503.229 208.552C500.166 212.345 496.607 215.41 492.555 217.748C489.929 219.263 487.373 220.187 484.885 220.517C482.399 220.847 480.199 220.475 478.287 219.398C476.375 218.325 474.843 216.493 473.693 213.901C472.541 211.315 471.966 207.871 471.966 203.575C471.966 199.586 472.494 195.677 473.554 191.845C474.614 188.008 476.053 184.451 477.872 181.158C479.691 177.868 481.834 174.902 484.298 172.252C486.762 169.601 489.399 167.466 492.209 165.845C495.065 164.197 497.667 163.359 500.017 163.321C502.366 163.285 504.38 163.965 506.062 165.355C507.743 166.749 509.044 168.807 509.965 171.527C510.887 174.25 511.348 177.509 511.348 181.315ZM497.598 182.344C497.598 180.625 497.126 179.485 496.183 178.924C495.238 178.368 493.959 178.552 492.348 179.481C490.596 180.492 489.239 181.919 488.271 183.766C487.304 185.612 486.751 187.254 486.613 188.682L497.598 182.344Z" fill="#5FD0F4"/>
<path d="M532.765 193.999C527.882 196.816 524.266 197.505 521.918 196.07C519.569 194.63 518.394 190.967 518.394 185.075V167.77L513.281 170.72V155.531L518.325 152.621V141.758L533.801 132.83V143.692L541.677 139.148V154.337L533.801 158.881V171.766C533.801 174.1 534.181 175.462 534.941 175.851C535.702 176.24 536.749 176.051 538.086 175.28C538.592 174.988 539.122 174.622 539.674 174.18C540.226 173.738 540.664 173.362 540.987 173.052V187.596C540.158 188.566 538.994 189.638 537.498 190.808C536.001 191.979 534.424 193.042 532.765 193.999Z" fill="#5FD0F4"/>
<path d="M556.531 177.074L541.815 139.069L559.503 128.864L564.892 151.252L565.168 151.093L569.936 122.845L587 113L572.077 172.975C571.202 176.487 570.211 179.745 569.106 182.746C568 185.744 566.711 188.499 565.237 191.005C563.762 193.515 562.025 195.772 560.02 197.79C558.017 199.804 555.678 201.584 553.007 203.125C552.179 203.602 551.326 204.046 550.452 204.46C549.576 204.872 548.735 205.233 547.93 205.544C547.123 205.856 546.375 206.13 545.684 206.38C544.994 206.62 544.417 206.784 543.956 206.867L545.961 188.136C546.558 188.098 547.283 187.938 548.137 187.663C548.988 187.385 549.76 187.049 550.452 186.65C552.202 185.64 553.502 184.414 554.355 182.974C555.207 181.531 555.841 179.956 556.256 178.244L556.531 177.074Z" fill="#5FD0F4"/>
</g>
<defs>
<clipPath id="clip0_174_171">
<rect width="248" height="194" fill="white" transform="translate(79 95.666)"/>
</clipPath>
<clipPath id="clip1_174_171">
<rect width="230" height="175" fill="white" transform="translate(357 113)"/>
</clipPath>
</defs>
</svg>
