<svg width="684" height="380" viewBox="0 0 684 380" fill="none" xmlns="http://www.w3.org/2000/svg">
<g clip-path="url(#clip0_174_173)">
<path d="M80 83L94.5195 91.3968V132.038L108.735 140.259V156.821L80 140.203V83Z" fill="#5FD0F4"/>
<path d="M144.549 156.687C144.549 157.387 144.538 158.094 144.518 158.809C144.497 159.527 144.467 160.114 144.427 160.574L123.012 148.189C123.052 148.969 123.244 149.754 123.587 150.544C123.929 151.333 124.352 152.091 124.858 152.814C125.361 153.536 125.925 154.184 126.551 154.764C127.175 155.338 127.812 155.815 128.457 156.188C129.747 156.933 130.826 157.249 131.694 157.129C132.56 157.012 133.215 156.704 133.659 156.208L143.581 168.649C142.169 170.903 140.122 172.145 137.44 172.37C134.758 172.597 131.642 171.683 128.094 169.631C125.795 168.301 123.557 166.524 121.378 164.294C119.201 162.065 117.275 159.511 115.601 156.63C113.927 153.752 112.586 150.593 111.579 147.153C110.57 143.716 110.066 140.111 110.066 136.34C110.066 132.839 110.529 129.944 111.457 127.654C112.385 125.36 113.646 123.695 115.238 122.647C116.831 121.602 118.706 121.168 120.864 121.337C123.022 121.507 125.331 122.303 127.791 123.726C130.292 125.172 132.57 127.072 134.628 129.419C136.684 131.765 138.448 134.403 139.92 137.325C141.392 140.251 142.532 143.376 143.338 146.696C144.145 150.019 144.549 153.346 144.549 156.687ZM132.51 143.665C132.51 142.156 132.096 140.678 131.27 139.23C130.443 137.785 129.323 136.651 127.913 135.835C126.379 134.948 125.19 134.826 124.343 135.468C123.497 136.109 123.012 136.989 122.891 138.103L132.51 143.665Z" fill="#5FD0F4"/>
<path d="M165.962 162.929C165.962 161.637 165.63 160.488 164.964 159.485C164.299 158.483 163.422 157.663 162.332 157.033C161.041 156.286 159.823 155.947 158.673 156.008C157.524 156.07 156.505 156.329 155.617 156.786L148.661 143.554C150.597 142.195 152.896 141.611 155.557 141.805C158.219 141.997 160.961 142.909 163.785 144.542C166.81 146.291 169.31 148.302 171.286 150.576C173.262 152.85 174.825 155.319 175.974 157.976C177.124 160.633 177.93 163.417 178.394 166.322C178.858 169.23 179.09 172.165 179.09 175.127V197.508L166.447 190.197V186.804L166.325 186.734C165.519 187.882 164.369 188.377 162.878 188.212C161.385 188.049 159.933 187.561 158.522 186.745C157.272 186.022 155.99 185.037 154.681 183.797C153.369 182.552 152.179 181.084 151.111 179.389C150.042 177.692 149.164 175.787 148.48 173.665C147.793 171.546 147.451 169.221 147.451 166.686C147.451 163.727 148.026 161.646 149.175 160.454C150.325 159.261 151.786 158.65 153.561 158.627C155.336 158.602 157.321 159.036 159.52 159.934C161.717 160.826 163.865 161.881 165.962 163.094L165.962 162.929ZM166.084 172.372C164.027 171.183 162.373 170.522 161.123 170.394C159.872 170.263 159.248 171.006 159.248 172.621C159.248 174.235 159.348 173.77 159.55 174.291C159.752 174.812 160.014 175.299 160.336 175.755C160.659 176.211 161.012 176.619 161.395 176.972C161.779 177.329 162.131 177.601 162.454 177.789C163.785 178.558 164.853 178.61 165.66 177.946C166.467 177.282 166.87 176.059 166.87 174.284V172.827L166.084 172.372Z" fill="#5FD0F4"/>
<path d="M183.567 178.686C183.567 175.941 183.879 173.426 184.505 171.151C185.129 168.872 186.047 167.033 187.257 165.632C188.467 164.231 189.98 163.409 191.795 163.167C193.609 162.921 195.707 163.489 198.086 164.865C199.618 165.751 201.15 167.029 202.684 168.695C204.216 170.363 205.446 172.192 206.374 174.182L206.494 174.252V152.274L220.47 160.357V221.439L207.892 214.166V209.721L207.771 209.65C206.843 210.84 205.492 211.417 203.716 211.386C201.942 211.355 200.066 210.77 198.089 209.627C195.71 208.251 193.612 206.39 191.796 204.048C189.981 201.706 188.467 199.121 187.257 196.291C186.047 193.465 185.129 190.524 184.505 187.471C183.879 184.416 183.567 181.487 183.567 178.686ZM196.513 186.173C196.513 188.221 196.957 190.187 197.844 192.075C198.731 193.958 200.022 195.392 201.715 196.371C203.369 197.328 204.69 197.395 205.678 196.562C206.665 195.736 207.16 194.323 207.16 192.33C207.16 190.447 206.665 188.517 205.678 186.545C204.69 184.573 203.369 183.109 201.715 182.153C200.022 181.173 198.731 181.127 197.844 182.015C196.957 182.902 196.513 184.289 196.513 186.173Z" fill="#5FD0F4"/>
<path d="M226.64 170.227C226.64 168.935 226.83 167.822 227.214 166.884C227.597 165.948 228.122 165.242 228.786 164.761C229.452 164.288 230.229 164.05 231.116 164.051C232.002 164.05 232.951 164.343 233.959 164.926C234.927 165.485 235.835 166.267 236.682 167.269C237.528 168.272 238.284 169.396 238.95 170.639C239.616 171.889 240.139 173.201 240.523 174.58C240.906 175.962 241.098 177.296 241.098 178.588C241.098 179.936 240.906 181.077 240.523 182.013C240.139 182.952 239.616 183.642 238.95 184.092C238.284 184.545 237.528 184.766 236.682 184.759C235.835 184.756 234.927 184.474 233.959 183.915C232.951 183.332 232.002 182.54 231.116 181.541C230.229 180.544 229.452 179.437 228.786 178.214C228.122 176.995 227.597 175.699 227.214 174.317C226.83 172.937 226.64 171.575 226.64 170.227ZM226.881 182.648L240.855 190.73V233.228L226.881 225.147V182.648Z" fill="#5FD0F4"/>
<path d="M247.328 194.473L260.939 202.345V207.029L261.061 207.1C261.864 206.002 263.061 205.337 264.649 205.095C266.237 204.856 268.057 205.33 270.109 206.517C272.319 207.795 274.159 209.398 275.626 211.322C277.093 213.248 278.26 215.31 279.125 217.507C279.989 219.703 280.592 221.952 280.935 224.251C281.277 226.546 281.448 228.746 281.448 230.847V256.703L267.474 248.622V225.997C267.474 223.843 267.221 222.189 266.717 221.035C266.212 219.882 265.456 219.014 264.448 218.432C263.52 217.895 262.763 217.957 262.18 218.616C261.594 219.273 261.302 220.544 261.302 222.428V245.053L247.328 236.971L247.328 194.473Z" fill="#5FD0F4"/>
<path d="M286.346 238.125C286.346 235.379 286.657 232.864 287.284 230.589C287.908 228.31 288.826 226.471 290.036 225.07C291.245 223.669 292.758 222.847 294.573 222.605C296.388 222.359 298.485 222.927 300.864 224.303C302.559 225.283 304.222 226.676 305.855 228.482C307.488 230.287 308.83 232.438 309.878 234.928L310.059 235.032V230.752L323.187 238.344V276.479C323.187 281.112 322.622 284.635 321.493 287.052C320.363 289.47 318.862 291.037 316.986 291.757C315.111 292.478 312.983 292.513 310.604 291.864C308.224 291.214 305.804 290.18 303.345 288.757C300.32 287.008 297.295 284.732 294.271 281.935C291.245 279.133 288.604 276.057 286.346 272.706L292.455 263.878C293.988 266.326 295.601 268.403 297.295 270.109C298.989 271.816 300.602 273.113 302.135 274C303.142 274.582 304.101 274.959 305.008 275.135C305.916 275.309 306.711 275.259 307.398 274.982C308.084 274.705 308.628 274.184 309.031 273.422C309.434 272.658 309.636 271.631 309.636 270.339V268.478L309.455 268.374C308.688 269.117 307.55 269.511 306.037 269.55C304.524 269.592 302.8 269.052 300.864 267.932C298.404 266.51 296.267 264.695 294.452 262.485C292.637 260.279 291.125 257.842 289.915 255.177C288.705 252.511 287.807 249.716 287.223 246.792C286.637 243.869 286.346 240.981 286.346 238.125ZM299.291 245.611C299.291 247.659 299.735 249.626 300.623 251.513C301.509 253.396 302.8 254.83 304.494 255.81C306.148 256.766 307.468 256.833 308.457 256.001C309.444 255.174 309.939 253.761 309.939 251.769C309.939 249.885 309.444 247.955 308.457 245.984C307.468 244.011 306.148 242.547 304.494 241.591C302.8 240.611 301.509 240.565 300.623 241.453C299.735 242.34 299.291 243.727 299.291 245.611Z" fill="#5FD0F4"/>
<path d="M307.217 364.437C305.926 365.199 304.283 365.502 302.287 365.343C300.291 365.185 297.902 364.303 295.119 362.694C293.061 361.504 291.024 360.004 289.008 358.19C286.991 356.376 285.187 354.31 283.594 351.988C282 349.666 280.7 347.083 279.692 344.239C278.683 341.393 278.18 338.383 278.18 335.204C278.18 333.373 278.401 331.792 278.846 330.457C279.289 329.126 279.883 328.043 280.63 327.209C281.376 326.375 282.263 325.757 283.291 325.352C284.32 324.951 285.418 324.764 286.588 324.796C285.418 322.719 284.431 320.465 283.625 318.033C282.817 315.6 282.415 313.145 282.415 310.666C282.415 307.868 282.887 305.768 283.836 304.38C284.783 302.988 286.004 302.119 287.495 301.769C288.987 301.418 290.641 301.501 292.457 302.011C294.272 302.525 296.046 303.278 297.78 304.281C299.555 305.307 301.319 306.611 303.073 308.191C304.828 309.774 306.41 311.59 307.823 313.646C309.233 315.701 310.383 317.967 311.27 320.446C312.158 322.925 312.602 325.566 312.602 328.367C312.602 330.145 312.379 331.618 311.936 332.788C311.492 333.961 310.886 334.903 310.121 335.618C309.354 336.331 308.478 336.877 307.489 337.245C306.501 337.617 305.443 337.88 304.314 338.036L307.278 343.468L310.606 339.008L325.668 347.719L315.385 358.496L327 380L310.181 370.274L307.217 364.437ZM294.15 338.947C293.585 338.89 293.051 339.064 292.548 339.473C292.043 339.881 291.791 340.732 291.791 342.024C291.791 342.832 291.913 343.577 292.154 344.255C292.396 344.935 292.719 345.578 293.123 346.187C293.525 346.797 293.969 347.324 294.453 347.765C294.937 348.206 295.401 348.556 295.844 348.812C296.611 349.256 297.327 349.509 297.992 349.568C298.657 349.631 299.151 349.512 299.475 349.216L294.15 338.947ZM297.902 316.716C296.972 316.179 296.277 316.151 295.814 316.64C295.35 317.124 295.119 317.852 295.119 318.822C295.119 319.739 295.319 320.716 295.723 321.755C296.126 322.797 296.671 323.868 297.356 324.965C298.284 325.015 299.051 324.801 299.656 324.312C300.261 323.83 300.563 323.048 300.563 321.97C300.563 320.891 300.341 319.876 299.898 318.919C299.454 317.962 298.788 317.228 297.902 316.716Z" fill="#5FD0F4"/>
</g>
<g clip-path="url(#clip1_174_173)">
<path d="M357 322.62L371.585 314.197V354.963L385.865 346.717V363.331L357 380V322.62Z" fill="#5FD0F4"/>
<path d="M406.525 324.329C406.525 323.033 406.191 322.266 405.523 322.032C404.855 321.798 403.973 321.994 402.879 322.626C401.582 323.375 400.358 324.447 399.204 325.843C398.049 327.239 397.025 328.681 396.134 330.168L389.146 324.967C391.091 321.357 393.4 318.104 396.073 315.212C398.747 312.316 401.502 310.049 404.338 308.411C407.377 306.656 409.888 305.773 411.874 305.761C413.858 305.749 415.428 306.412 416.583 307.744C417.738 309.075 418.548 310.933 419.014 313.308C419.48 315.687 419.712 318.363 419.712 321.334V343.784L407.012 351.118V347.715L406.89 347.786C406.08 349.873 404.926 351.704 403.427 353.268C401.927 354.836 400.469 356.032 399.052 356.85C397.795 357.575 396.508 358.075 395.193 358.35C393.875 358.623 392.679 358.531 391.608 358.069C390.533 357.608 389.652 356.715 388.964 355.381C388.274 354.051 387.931 352.116 387.931 349.574C387.931 346.606 388.508 343.852 389.663 341.322C390.818 338.792 392.285 336.483 394.068 334.402C395.851 332.317 397.845 330.45 400.054 328.798C402.261 327.144 404.419 325.71 406.525 324.494L406.525 324.329ZM406.648 333.66C404.582 334.853 402.92 336.109 401.664 337.432C400.408 338.751 399.781 340.221 399.781 341.84C399.781 342.437 399.881 342.877 400.084 343.165C400.287 343.454 400.55 343.638 400.874 343.722C401.198 343.805 401.553 343.804 401.937 343.714C402.323 343.627 402.677 343.492 403.002 343.304C404.338 342.532 405.411 341.345 406.222 339.742C407.032 338.14 407.438 336.445 407.438 334.665V333.204L406.648 333.66Z" fill="#5FD0F4"/>
<path d="M424.209 319.71C424.209 316.956 424.522 314.071 425.151 311.063C425.778 308.053 426.7 305.143 427.916 302.334C429.131 299.525 430.65 296.946 432.474 294.597C434.296 292.245 436.403 290.382 438.793 289.002C440.495 288.019 442.166 287.486 443.806 287.403C445.447 287.319 446.795 287.92 447.848 289.201L448.03 289.096V284.802L461.217 277.187V315.44C461.217 320.087 460.649 324.276 459.515 328.011C458.38 331.746 456.872 335.061 454.988 337.959C453.105 340.857 450.967 343.361 448.577 345.47C446.186 347.58 443.756 349.349 441.285 350.776C438.247 352.531 435.208 353.758 432.17 354.461C429.131 355.16 426.478 355.139 424.209 354.398L430.346 338.455C431.886 339.132 433.506 339.344 435.208 339.09C436.91 338.836 438.53 338.267 440.07 337.377C441.081 336.793 442.045 336.059 442.956 335.183C443.868 334.303 444.667 333.331 445.357 332.256C446.045 331.183 446.592 330.029 446.997 328.796C447.402 327.563 447.604 326.299 447.604 325.003V323.136L447.423 323.241C446.652 324.876 445.509 326.592 443.989 328.386C442.47 330.184 440.738 331.642 438.793 332.766C436.321 334.193 434.175 334.852 432.352 334.741C430.529 334.632 429.01 333.944 427.794 332.673C426.579 331.403 425.677 329.642 425.09 327.386C424.502 325.133 424.209 322.575 424.209 319.71ZM437.213 312.2C437.213 314.255 437.659 315.712 438.551 316.575C439.441 317.436 440.738 317.377 442.439 316.394C444.101 315.435 445.427 313.969 446.42 311.988C447.412 310.014 447.909 308.022 447.909 306.024C447.909 304.134 447.412 302.772 446.42 301.94C445.427 301.108 444.101 301.172 442.439 302.132C440.738 303.114 439.441 304.566 438.551 306.484C437.659 308.404 437.213 310.311 437.213 312.2Z" fill="#5FD0F4"/>
<path d="M466.565 295.25C466.565 292.496 466.878 289.611 467.508 286.603C468.134 283.593 469.057 280.683 470.272 277.874C471.487 275.065 473.007 272.486 474.83 270.137C476.653 267.785 478.76 265.922 481.149 264.542C482.852 263.559 484.522 263.026 486.163 262.943C487.803 262.859 489.151 263.46 490.204 264.741L490.386 264.636V260.342L503.573 252.727V290.98C503.573 295.627 503.006 299.816 501.872 303.551C500.737 307.286 499.229 310.601 497.344 313.499C495.461 316.397 493.324 318.901 490.934 321.01C488.543 323.12 486.112 324.89 483.642 326.316C480.603 328.071 477.564 329.298 474.526 330.001C471.487 330.7 468.834 330.679 466.565 329.938L472.703 313.995C474.242 314.672 475.863 314.884 477.564 314.63C479.266 314.376 480.886 313.807 482.427 312.917C483.438 312.333 484.401 311.599 485.312 310.723C486.225 309.843 487.023 308.871 487.713 307.796C488.402 306.723 488.948 305.569 489.354 304.336C489.758 303.103 489.961 301.839 489.961 300.543V298.676L489.779 298.781C489.009 300.416 487.865 302.132 486.346 303.926C484.826 305.724 483.094 307.183 481.149 308.306C478.678 309.733 476.532 310.392 474.708 310.281C472.886 310.173 471.366 309.484 470.151 308.213C468.935 306.943 468.033 305.182 467.447 302.926C466.858 300.673 466.565 298.115 466.565 295.25ZM479.569 287.74C479.569 289.795 480.016 291.252 480.907 292.115C481.797 292.976 483.094 292.917 484.795 291.934C486.457 290.975 487.784 289.51 488.777 287.528C489.768 285.554 490.265 283.562 490.265 281.564C490.265 279.565 489.768 278.312 488.777 277.48C487.784 276.649 486.457 276.712 484.795 277.672C483.094 278.654 481.797 280.106 480.907 282.024C480.016 283.944 479.569 285.851 479.569 287.74Z" fill="#5FD0F4"/>
<path d="M510.016 236.687C510.016 235.391 510.207 234.053 510.593 232.666C510.978 231.284 511.504 229.967 512.172 228.714C512.841 227.467 513.621 226.328 514.512 225.298C515.402 224.27 516.356 223.462 517.368 222.877C518.34 222.316 519.252 222.047 520.103 222.07C520.954 222.093 521.713 222.344 522.382 222.818C523.051 223.299 523.576 224.008 523.962 224.946C524.346 225.888 524.539 227.004 524.539 228.3C524.539 229.652 524.346 231.02 523.962 232.402C523.576 233.789 523.051 235.089 522.382 236.312C521.713 237.54 520.954 238.637 520.103 239.613C519.252 240.593 518.34 241.364 517.368 241.925C516.356 242.51 515.402 242.816 514.512 242.842C513.621 242.872 512.841 242.663 512.172 242.208C511.504 241.756 510.978 241.065 510.593 240.122C510.207 239.184 510.016 238.039 510.016 236.687ZM510.258 248.867L524.295 240.761V283.39L510.258 291.496V248.867Z" fill="#5FD0F4"/>
<path d="M530.798 237.006L544.471 229.11V233.809L544.593 233.738C545.399 231.706 546.602 229.65 548.197 227.565C549.792 225.483 551.621 223.847 553.682 222.656C555.902 221.374 557.75 220.848 559.224 221.075C560.698 221.305 561.87 222.02 562.739 223.22C563.607 224.42 564.213 225.977 564.556 227.885C564.9 229.791 565.072 231.799 565.072 233.906V259.842L551.034 267.949V245.254C551.034 243.094 550.781 241.727 550.274 241.155C549.767 240.584 549.008 240.591 547.995 241.175C547.063 241.714 546.303 242.654 545.717 243.992C545.128 245.331 544.835 246.944 544.835 248.834V271.529L530.798 279.635L530.798 237.006Z" fill="#5FD0F4"/>
<path d="M569.992 235.523C569.992 232.769 570.305 229.884 570.934 226.876C571.561 223.866 572.483 220.956 573.699 218.147C574.914 215.338 576.434 212.759 578.257 210.41C580.08 208.058 582.186 206.195 584.576 204.815C586.279 203.832 587.949 203.299 589.59 203.216C591.23 203.132 592.578 203.733 593.631 205.014L593.813 204.909V200.615L607 193V231.253C607 235.9 606.432 240.089 605.299 243.824C604.164 247.559 602.655 250.874 600.771 253.772C598.888 256.67 596.751 259.174 594.361 261.283C591.97 263.393 589.539 265.162 587.069 266.589C584.03 268.344 580.991 269.571 577.953 270.274C574.914 270.973 572.261 270.952 569.992 270.211L576.129 254.268C577.669 254.945 579.29 255.157 580.991 254.903C582.693 254.649 584.313 254.079 585.853 253.19C586.865 252.606 587.828 251.872 588.739 250.996C589.651 250.116 590.45 249.144 591.14 248.069C591.829 246.996 592.375 245.842 592.781 244.609C593.185 243.376 593.388 242.112 593.388 240.816V238.949L593.206 239.054C592.436 240.689 591.292 242.405 589.773 244.199C588.253 245.997 586.521 247.455 584.576 248.579C582.105 250.006 579.958 250.665 578.135 250.554C576.312 250.445 574.793 249.757 573.578 248.486C572.362 247.216 571.46 245.455 570.874 243.198C570.285 240.946 569.992 238.388 569.992 235.523ZM582.996 228.013C582.996 230.068 583.442 231.525 584.334 232.388C585.224 233.249 586.521 233.19 588.222 232.207C589.884 231.248 591.21 229.782 592.203 227.801C593.195 225.827 593.692 223.835 593.692 221.837C593.692 219.947 593.195 218.585 592.203 217.753C591.21 216.921 589.884 216.985 588.222 217.945C586.521 218.927 585.224 220.379 584.334 222.297C583.443 224.217 582.996 226.124 582.996 228.013Z" fill="#5FD0F4"/>
</g>
<defs>
<clipPath id="clip0_174_173">
<rect width="247" height="297" fill="white" transform="translate(80 83)"/>
</clipPath>
<clipPath id="clip1_174_173">
<rect width="250" height="187" fill="white" transform="translate(357 193)"/>
</clipPath>
</defs>
</svg>
