<svg width="684" height="380" viewBox="0 0 684 380" fill="none" xmlns="http://www.w3.org/2000/svg">
<g clip-path="url(#clip0_174_170)">
<path d="M57.1443 121.885C55.6875 121.046 54.2555 120.052 52.8503 118.908C51.4442 117.761 50.0886 116.486 48.7848 115.086C47.48 113.683 46.2516 112.213 45.0998 110.675C43.948 109.136 42.9151 107.566 42 105.963L49.369 99.5553C50.2158 101.261 51.3428 102.991 52.749 104.748C54.1541 106.504 55.6027 107.811 57.0936 108.67C57.7709 109.061 58.3902 109.261 58.9486 109.266C59.5079 109.272 59.7871 108.845 59.7871 107.987C59.7871 107.536 59.694 107.099 59.5079 106.674C59.3208 106.252 58.9909 105.733 58.5164 105.122C58.0418 104.511 57.3904 103.763 56.5601 102.877C55.7298 101.993 54.6876 100.918 53.4345 99.6538C52.2154 98.4095 51.046 97.0934 49.9283 95.7039C48.8096 94.3137 47.8191 92.8283 46.9547 91.2463C46.0913 89.6649 45.4048 87.9721 44.8971 86.1664C44.3884 84.3601 44.1341 82.3964 44.1341 80.2738C44.1341 77.2941 44.5921 75.0282 45.5061 73.4789C46.4211 71.9289 47.5978 70.9009 49.0391 70.3997C50.4784 69.8958 52.0955 69.8686 53.8925 70.3165C55.6874 70.7632 57.4659 71.4934 59.2287 72.509C61.5996 73.8749 64.0128 75.8746 66.4706 78.5066C68.9262 81.1387 71.0861 84.1412 72.9503 87.5139L65.4283 93.3904C64.6156 91.57 63.6158 89.9691 62.4298 88.587C61.2439 87.2049 60.1769 86.2408 59.2287 85.6946C58.3468 85.1865 57.6354 84.9458 57.0936 84.9721C56.5518 84.997 56.2809 85.394 56.2809 86.1602C56.2809 86.881 56.5601 87.5839 57.1195 88.2652C57.6778 88.9486 58.5846 89.9209 59.8377 91.1848C61.125 92.4671 62.4805 93.8794 63.9043 95.4205C65.327 96.961 66.6391 98.6523 67.8426 100.496C69.0451 102.337 70.0356 104.318 70.8152 106.434C71.5948 108.551 71.9846 110.85 71.9846 113.329C71.9846 116.213 71.5524 118.478 70.688 120.12C69.8247 121.765 68.6883 122.89 67.2832 123.5C65.877 124.11 64.293 124.258 62.5312 123.94C60.7693 123.624 58.9744 122.94 57.1443 121.885Z" fill="#5FD0F4"/>
<path d="M87.3824 138.9C83.7905 136.83 81.1311 134.273 79.4034 131.227C77.6757 128.18 76.8113 124.492 76.8113 120.166V107.454L73.0508 105.287V94.1305L76.7606 96.2678V88.2891L88.1444 94.8474V102.826L93.9377 106.164V117.32L88.1444 113.983V123.449C88.1444 125.163 88.4236 126.483 88.983 127.415C89.5423 128.345 90.3126 129.093 91.2959 129.659C91.6682 129.874 92.058 130.054 92.4643 130.198C92.8707 130.342 93.1922 130.437 93.43 130.483V141.166C92.82 141.175 91.9639 140.975 90.8637 140.567C89.7626 140.158 88.6025 139.603 87.3824 138.9Z" fill="#5FD0F4"/>
<path d="M111.318 129.159C111.318 128.078 111.039 127.116 110.48 126.276C109.921 125.437 109.184 124.752 108.269 124.225C107.184 123.6 106.161 123.314 105.195 123.367C104.229 123.419 103.373 123.636 102.628 124.018L96.7839 112.943C98.4103 111.807 100.342 111.319 102.577 111.48C104.814 111.641 107.117 112.405 109.489 113.771C112.031 115.235 114.131 116.918 115.791 118.821C117.451 120.724 118.764 122.789 119.729 125.012C120.695 127.237 121.372 129.566 121.762 131.998C122.152 134.432 122.346 136.888 122.346 139.367V158.097L111.726 151.978V149.138L111.623 149.08C110.946 150.042 109.98 150.455 108.727 150.318C107.473 150.181 106.253 149.771 105.068 149.089C104.017 148.484 102.941 147.661 101.841 146.622C100.739 145.581 99.739 144.351 98.8425 142.932C97.944 141.514 97.2068 139.918 96.632 138.143C96.055 136.369 95.7676 134.423 95.7676 132.303C95.7676 129.826 96.2504 128.086 97.2161 127.086C98.1818 126.088 99.4091 125.578 100.9 125.558C102.391 125.538 104.059 125.901 105.907 126.651C107.752 127.399 109.556 128.28 111.318 129.295L111.318 129.159ZM111.421 137.062C109.693 136.067 108.303 135.514 107.253 135.405C106.202 135.295 105.678 135.918 105.678 137.27C105.678 138.622 105.762 138.23 105.931 138.666C106.101 139.102 106.321 139.511 106.592 139.892C106.863 140.275 107.16 140.615 107.481 140.911C107.804 141.21 108.099 141.437 108.371 141.593C109.489 142.237 110.387 142.281 111.065 141.726C111.742 141.169 112.081 140.147 112.081 138.66V137.443L111.421 137.062Z" fill="#5FD0F4"/>
<path d="M126.107 142.345C126.107 140.046 126.369 137.942 126.895 136.038C127.419 134.13 128.191 132.591 129.207 131.419C130.224 130.246 131.494 129.558 133.019 129.356C134.543 129.151 136.306 129.626 138.304 130.777C139.729 131.598 141.125 132.764 142.498 134.274C143.869 135.786 144.996 137.584 145.877 139.67L146.03 139.758V136.174L157.058 142.528V174.443C157.058 178.319 156.582 181.268 155.635 183.293C154.686 185.314 153.424 186.627 151.849 187.23C150.273 187.831 148.486 187.863 146.487 187.319C144.487 186.775 142.454 185.908 140.388 184.717C137.847 183.253 135.305 181.35 132.765 179.008C130.224 176.664 128.005 174.09 126.107 171.285L131.24 163.897C132.527 165.945 133.883 167.683 135.305 169.111C136.73 170.541 138.085 171.626 139.373 172.368C140.219 172.855 141.023 173.171 141.786 173.319C142.549 173.465 143.217 173.422 143.794 173.191C144.369 172.959 144.826 172.523 145.165 171.885C145.504 171.246 145.674 170.385 145.674 169.304V167.748L145.521 167.66C144.878 168.283 143.92 168.61 142.651 168.644C141.379 168.679 139.931 168.227 138.304 167.289C136.238 166.099 134.442 164.58 132.917 162.732C131.393 160.885 130.122 158.846 129.106 156.614C128.09 154.385 127.335 152.045 126.845 149.598C126.352 147.151 126.107 144.735 126.107 142.345ZM136.983 148.61C136.983 150.323 137.357 151.969 138.101 153.548C138.846 155.126 139.931 156.326 141.354 157.146C142.744 157.947 143.852 158 144.683 157.306C145.513 156.613 145.928 155.431 145.928 153.764C145.928 152.097 145.513 150.573 144.683 148.921C143.852 147.272 142.744 146.046 141.354 145.245C139.931 144.426 138.846 144.388 138.101 145.129C137.357 145.874 136.983 147.032 136.983 148.61Z" fill="#5FD0F4"/>
<path d="M162.598 145.72L174.031 152.307V156.229L174.135 156.288C174.809 155.37 175.814 154.811 177.147 154.61C178.481 154.408 180.012 154.806 181.734 155.798C183.591 156.868 185.138 158.21 186.37 159.821C187.603 161.434 188.583 163.158 189.309 164.996C190.035 166.834 190.541 168.716 190.829 170.64C191.116 172.562 191.261 174.403 191.261 176.161V197.799L179.521 191.036V172.103C179.521 170.301 179.308 168.915 178.885 167.95C178.461 166.985 177.826 166.257 176.98 165.77C176.2 165.321 175.563 165.372 175.073 165.923C174.581 166.475 174.337 167.539 174.337 169.116V188.049L162.598 181.286V145.72Z" fill="#5FD0F4"/>
<path d="M210.62 186.368C210.62 185.287 210.341 184.325 209.782 183.485C209.224 182.646 208.486 181.961 207.572 181.434C206.486 180.809 205.463 180.523 204.497 180.576C203.531 180.628 202.675 180.845 201.931 181.227L196.087 170.153C197.712 169.016 199.644 168.527 201.879 168.689C204.116 168.851 206.42 169.614 208.792 170.981C211.333 172.445 213.432 174.127 215.093 176.03C216.753 177.933 218.067 179.998 219.032 182.222C219.998 184.447 220.674 186.775 221.065 189.208C221.454 191.641 221.648 194.097 221.648 196.576V215.306L211.027 209.187V206.347L210.926 206.289C210.248 207.251 209.282 207.664 208.029 207.527C206.776 207.391 205.556 206.981 204.371 206.298C203.32 205.693 202.243 204.87 201.143 203.831C200.041 202.79 199.042 201.561 198.144 200.141C197.247 198.723 196.509 197.127 195.934 195.352C195.357 193.578 195.069 191.632 195.069 189.512C195.069 187.392 195.553 185.295 196.519 184.296C197.485 183.298 198.711 182.787 200.202 182.767C201.693 182.747 203.362 183.111 205.208 183.86C207.055 184.609 208.858 185.489 210.62 186.504L210.62 186.368ZM210.723 194.272C208.995 193.276 207.605 192.723 206.554 192.614C205.504 192.504 204.981 193.127 204.981 194.479C204.981 194.976 205.064 195.439 205.233 195.875C205.403 196.311 205.624 196.721 205.895 197.101C206.166 197.484 206.461 197.824 206.784 198.121C207.107 198.42 207.402 198.646 207.673 198.802C208.792 199.447 209.689 199.491 210.368 198.935C211.044 198.378 211.383 197.356 211.383 195.869V194.652L210.723 194.272Z" fill="#5FD0F4"/>
<path d="M237.606 225.446C234.014 223.377 231.355 220.82 229.628 217.774C227.899 214.727 227.035 211.039 227.035 206.712V194L223.275 191.834V180.677L226.985 182.815V174.836L238.369 181.394V189.373L244.161 192.71V203.867L238.369 200.53V209.995C238.369 211.709 238.648 213.03 239.207 213.961C239.767 214.892 240.536 215.639 241.521 216.206C241.893 216.421 242.282 216.601 242.689 216.745C243.094 216.889 243.417 216.984 243.655 217.03V227.713C243.045 227.722 242.188 227.522 241.088 227.114C239.986 226.704 238.826 226.149 237.606 225.446Z" fill="#5FD0F4"/>
<path d="M247.212 184.19C247.212 183.109 247.373 182.177 247.696 181.393C248.016 180.607 248.457 180.017 249.015 179.616C249.576 179.219 250.227 179.02 250.973 179.021C251.718 179.022 252.514 179.266 253.362 179.754C254.175 180.222 254.938 180.877 255.649 181.714C256.36 182.553 256.995 183.494 257.554 184.535C258.114 185.58 258.552 186.677 258.875 187.833C259.198 188.989 259.359 190.106 259.359 191.188C259.359 192.314 259.198 193.27 258.875 194.054C258.552 194.838 258.114 195.417 257.554 195.793C256.995 196.172 256.36 196.356 255.649 196.352C254.938 196.348 254.175 196.112 253.362 195.644C252.514 195.156 251.718 194.493 250.973 193.659C250.227 192.823 249.576 191.897 249.015 190.874C248.457 189.854 248.016 188.768 247.696 187.613C247.373 186.458 247.212 185.316 247.212 184.19ZM247.415 194.584L259.154 201.347V236.913L247.415 230.15V194.584Z" fill="#5FD0F4"/>
<path d="M294.017 239.08C294.017 242.145 293.601 244.634 292.772 246.544C291.943 248.456 290.824 249.828 289.418 250.663C288.011 251.5 286.386 251.814 284.539 251.605C282.693 251.397 280.753 250.709 278.72 249.538C276.721 248.386 274.798 246.849 272.953 244.93C271.104 243.01 269.487 240.828 268.1 238.381C266.71 235.936 265.599 233.279 264.77 230.412C263.939 227.545 263.525 224.579 263.525 221.514C263.525 218.494 263.939 216.038 264.77 214.15C265.6 212.262 266.71 210.907 268.1 210.084C269.487 209.261 271.104 208.965 272.953 209.195C274.798 209.424 276.721 210.115 278.72 211.267C280.753 212.438 282.693 213.973 284.539 215.87C286.386 217.769 288.011 219.933 289.418 222.366C290.824 224.799 291.943 227.439 292.772 230.282C293.601 233.126 294.017 236.061 294.017 239.08ZM278.72 224.453C277.432 223.711 276.39 223.696 275.594 224.41C274.798 225.123 274.4 226.269 274.4 227.846C274.4 229.515 274.808 231.169 275.621 232.808C276.433 234.45 277.484 235.64 278.77 236.381C280.058 237.123 281.109 237.144 281.921 236.438C282.734 235.736 283.142 234.551 283.142 232.882C283.142 231.304 282.726 229.691 281.897 228.041C281.065 226.39 280.007 225.194 278.72 224.453Z" fill="#5FD0F4"/>
<path d="M298.337 223.921L309.77 230.508V234.43L309.874 234.489C310.548 233.571 311.553 233.012 312.887 232.811C314.221 232.609 315.751 233.007 317.473 233.999C319.33 235.069 320.877 236.411 322.11 238.022C323.342 239.635 324.322 241.359 325.048 243.197C325.774 245.035 326.281 246.917 326.568 248.841C326.855 250.763 327 252.605 327 254.363V276L315.261 269.237V250.304C315.261 248.502 315.048 247.116 314.624 246.151C314.2 245.186 313.565 244.458 312.719 243.971C311.94 243.522 311.303 243.573 310.813 244.125C310.32 244.676 310.076 245.741 310.076 247.317V266.25L298.337 259.487V223.921Z" fill="#5FD0F4"/>
</g>
<g clip-path="url(#clip1_174_170)">
<path d="M357 227.9L369.039 220.927L379.298 239.375L379.501 239.258L378.994 215.161L390.473 208.513V256.613L378.13 263.762L368.175 246.566L367.972 246.683L368.479 269.352L357 276L357 227.9Z" fill="#5FD0F4"/>
<path d="M410.687 222.214C410.687 221.128 410.408 220.485 409.848 220.288C409.29 220.092 408.554 220.257 407.639 220.787C406.556 221.414 405.533 222.312 404.568 223.483C403.603 224.653 402.747 225.862 402.001 227.11L396.16 222.748C397.787 219.723 399.717 216.996 401.951 214.57C404.185 212.144 406.488 210.244 408.858 208.871C411.398 207.4 413.498 206.659 415.158 206.649C416.815 206.64 418.128 207.194 419.093 208.311C420.058 209.428 420.736 210.983 421.124 212.976C421.515 214.97 421.709 217.213 421.709 219.703V238.522L411.095 244.67V241.817L410.991 241.877C410.315 243.627 409.35 245.16 408.098 246.473C406.843 247.788 405.624 248.789 404.44 249.475C403.39 250.083 402.315 250.502 401.216 250.731C400.114 250.962 399.114 250.884 398.219 250.496C397.32 250.111 396.584 249.361 396.009 248.243C395.433 247.128 395.146 245.506 395.146 243.376C395.146 240.887 395.627 238.58 396.592 236.458C397.557 234.337 398.785 232.403 400.275 230.657C401.765 228.91 403.431 227.346 405.279 225.959C407.122 224.575 408.927 223.371 410.687 222.351L410.687 222.214ZM410.789 230.037C409.063 231.036 407.674 232.089 406.624 233.196C405.574 234.302 405.049 235.535 405.049 236.894C405.049 237.393 405.134 237.761 405.304 238.003C405.473 238.245 405.692 238.401 405.963 238.47C406.234 238.541 406.531 238.539 406.852 238.465C407.174 238.392 407.469 238.277 407.742 238.119C408.858 237.473 409.755 236.478 410.433 235.134C411.111 233.791 411.45 232.371 411.45 230.877V229.654L410.789 230.037Z" fill="#5FD0F4"/>
<path d="M437.656 230.237C434.067 232.316 431.409 232.826 429.683 231.764C427.955 230.704 427.091 227.999 427.091 223.652V210.879L423.334 213.055V201.846L427.042 199.699V191.682L438.419 185.092V193.109L444.208 189.756V200.966L438.419 204.319V213.829C438.419 215.552 438.698 216.555 439.256 216.844C439.816 217.131 440.585 216.991 441.569 216.421C441.941 216.206 442.329 215.936 442.737 215.609C443.142 215.285 443.464 215.007 443.702 214.778V225.512C443.092 226.227 442.236 227.017 441.137 227.881C440.035 228.746 438.876 229.53 437.656 230.237Z" fill="#5FD0F4"/>
<path d="M447.257 177.664C447.257 176.577 447.418 175.454 447.74 174.293C448.061 173.133 448.501 172.029 449.059 170.981C449.619 169.933 450.27 168.979 451.016 168.115C451.76 167.254 452.556 166.578 453.403 166.087C454.216 165.617 454.978 165.391 455.689 165.409C456.4 165.428 457.035 165.638 457.593 166.038C458.153 166.439 458.591 167.034 458.913 167.822C459.236 168.61 459.397 169.546 459.397 170.632C459.397 171.765 459.236 172.911 458.913 174.072C458.591 175.233 458.153 176.323 457.593 177.35C457.035 178.377 456.4 179.297 455.689 180.117C454.978 180.936 454.216 181.582 453.403 182.053C452.556 182.544 451.76 182.8 451.016 182.823C450.27 182.847 449.619 182.672 449.059 182.292C448.501 181.913 448.061 181.332 447.74 180.543C447.418 179.756 447.257 178.796 447.257 177.664ZM447.459 187.873L459.192 181.077V216.812L447.459 223.608V187.873Z" fill="#5FD0F4"/>
<path d="M494.036 178.63C494.036 181.709 493.62 184.691 492.791 187.57C491.963 190.451 490.845 193.125 489.439 195.592C488.034 198.06 486.409 200.257 484.564 202.186C482.718 204.115 480.78 205.669 478.748 206.845C476.749 208.003 474.827 208.685 472.984 208.893C471.136 209.103 469.52 208.783 468.133 207.932C466.744 207.083 465.634 205.7 464.806 203.779C463.975 201.86 463.562 199.359 463.562 196.279C463.562 193.246 463.975 190.298 464.806 187.44C465.634 184.582 466.744 181.936 468.133 179.5C469.52 177.066 471.136 174.897 472.984 172.988C474.827 171.083 476.749 169.55 478.748 168.393C480.78 167.216 482.718 166.512 484.564 166.281C486.409 166.051 488.034 166.343 489.439 167.16C490.845 167.977 491.963 169.334 492.791 171.231C493.62 173.128 494.036 175.596 494.036 178.63ZM478.748 181.641C477.46 182.387 476.419 183.579 475.623 185.218C474.827 186.856 474.431 188.467 474.431 190.052C474.431 191.729 474.838 192.919 475.65 193.625C476.462 194.334 477.512 194.313 478.798 193.569C480.085 192.823 481.135 191.627 481.947 189.978C482.759 188.331 483.167 186.669 483.167 184.992C483.167 183.407 482.751 182.267 481.922 181.569C481.092 180.873 480.033 180.897 478.748 181.641Z" fill="#5FD0F4"/>
<path d="M498.353 158.397L509.78 151.778V155.719L509.883 155.659C510.557 153.956 511.561 152.231 512.894 150.485C514.227 148.738 515.757 147.366 517.478 146.369C519.334 145.294 520.88 144.852 522.112 145.044C523.344 145.237 524.323 145.835 525.049 146.841C525.774 147.847 526.28 149.152 526.568 150.752C526.855 152.35 527 154.033 527 155.8V177.54L515.267 184.335V165.312C515.267 163.502 515.054 162.356 514.63 161.877C514.207 161.398 513.572 161.402 512.727 161.892C511.948 162.343 511.311 163.132 510.821 164.253C510.329 165.377 510.085 166.729 510.085 168.313V187.336L498.353 194.132L498.353 158.397Z" fill="#5FD0F4"/>
</g>
<defs>
<clipPath id="clip0_174_170">
<rect width="285" height="206" fill="white" transform="translate(42 70)"/>
</clipPath>
<clipPath id="clip1_174_170">
<rect width="170" height="131" fill="white" transform="translate(357 145)"/>
</clipPath>
</defs>
</svg>
