<svg width="684" height="380" viewBox="0 0 684 380" fill="none" xmlns="http://www.w3.org/2000/svg">
<g clip-path="url(#clip0_174_169)">
<path d="M144.294 207.851L121.018 194.382V128.119L104 118.271V92L161.31 125.164V151.435L144.294 141.588V207.851Z" fill="#5FD0F4"/>
<path d="M211.482 213.012C211.482 214.145 211.464 215.289 211.432 216.446C211.399 217.604 211.349 218.554 211.285 219.301L176.664 199.267C176.73 200.526 177.04 201.795 177.593 203.073C178.147 204.353 178.831 205.576 179.649 206.746C180.463 207.916 181.374 208.964 182.387 209.899C183.395 210.831 184.424 211.599 185.467 212.202C187.552 213.409 189.297 213.919 190.7 213.728C192.1 213.539 193.159 213.04 193.877 212.235L209.916 232.363C207.634 236.009 204.325 238.017 199.99 238.382C195.654 238.748 190.616 237.271 184.88 233.951C181.163 231.801 177.546 228.923 174.024 225.316C170.504 221.71 167.39 217.579 164.684 212.921C161.978 208.262 159.809 203.152 158.182 197.591C156.55 192.028 155.736 186.199 155.736 180.1C155.736 174 156.484 169.75 157.985 166.045C159.485 162.337 161.522 159.642 164.097 157.949C166.672 156.258 169.704 155.553 173.192 155.828C176.68 156.104 180.413 157.392 184.39 159.694C188.433 162.033 192.116 165.103 195.443 168.9C198.768 172.699 201.619 176.963 203.999 181.693C206.379 186.426 208.221 191.478 209.524 196.848C210.829 202.225 211.482 207.609 211.482 213.012ZM192.019 191.946C192.019 189.507 191.35 187.116 190.015 184.774C188.678 182.434 186.867 180.602 184.587 179.283C182.108 177.848 180.186 177.65 178.817 178.688C177.448 179.725 176.664 181.146 176.469 182.947L192.019 191.946Z" fill="#5FD0F4"/>
<path d="M247.372 270.114C243.003 267.586 238.994 264.393 235.343 260.539C231.69 256.683 228.528 252.37 225.856 247.598C223.182 242.828 221.096 237.745 219.596 232.345C218.096 226.946 217.348 221.416 217.348 215.752C217.348 210.089 218.114 205.544 219.646 201.857C221.176 198.166 223.313 195.504 226.051 193.866C228.79 192.229 232 191.602 235.685 191.99C239.368 192.38 243.361 193.819 247.665 196.309C249.426 197.328 251.201 198.552 252.995 199.981C254.788 201.412 256.515 202.957 258.179 204.616C259.84 206.274 261.372 207.945 262.775 209.626C264.176 211.309 265.365 212.955 266.344 214.569L255.098 229.756C254.315 228.127 253.288 226.626 252.016 225.261C250.745 223.895 249.523 222.871 248.349 222.192C247.239 221.549 246.165 221.167 245.122 221.042C244.077 220.916 243.15 221.122 242.334 221.652C241.519 222.182 240.85 223.013 240.331 224.151C239.808 225.284 239.547 226.814 239.547 228.729C239.547 230.646 239.808 232.475 240.331 234.216C240.85 235.952 241.519 237.517 242.334 238.904C243.15 240.291 244.077 241.524 245.122 242.607C246.165 243.692 247.239 244.55 248.349 245.192C249.653 245.947 250.924 246.358 252.164 246.421C253.401 246.483 254.412 246.175 255.196 245.496L266.539 273.143C264.388 274.153 261.601 274.447 258.179 274.027C254.756 273.608 251.153 272.302 247.372 270.114Z" fill="#5FD0F4"/>
<path d="M307.668 231.816C311.244 233.885 314.219 236.479 316.59 239.593C318.962 242.71 320.848 246.043 322.245 249.595C323.642 253.147 324.617 256.786 325.17 260.504C325.723 264.22 326 267.778 326 271.176V313L303.408 299.927V263.331C303.408 259.847 303.001 257.17 302.185 255.305C301.369 253.44 300.147 252.033 298.518 251.09C297.212 250.335 296.039 250.421 294.998 251.343C293.953 252.262 293.432 254.38 293.432 257.691V294.154L270.841 281.081V182.274L293.432 195.347V232.988L293.627 233.101C294.926 231.327 296.781 230.201 299.186 229.718C301.592 229.236 304.417 229.935 307.668 231.816Z" fill="#5FD0F4"/>
</g>
<g clip-path="url(#clip1_174_169)">
<path d="M396.323 291.513L373.03 305V238.648L356 248.509V222.202L413.351 188.994V215.3L396.323 225.16V291.513Z" fill="#5FD0F4"/>
<path d="M417.756 190.371C417.756 188.278 418.064 186.116 418.686 183.879C419.305 181.643 420.153 179.517 421.228 177.497C422.306 175.48 423.562 173.64 424.998 171.978C426.431 170.32 427.967 169.015 429.597 168.071C431.162 167.165 432.632 166.729 434.002 166.764C435.372 166.802 436.594 167.207 437.671 167.976C438.749 168.75 439.595 169.894 440.216 171.412C440.835 172.93 441.146 174.734 441.146 176.827C441.146 179.008 440.835 181.217 440.216 183.452C439.595 185.689 438.749 187.79 437.671 189.766C436.594 191.745 435.372 193.518 434.002 195.097C432.632 196.676 431.162 197.921 429.597 198.827C427.967 199.771 426.431 200.266 424.998 200.311C423.562 200.356 422.306 200.019 421.228 199.287C420.153 198.557 419.305 197.438 418.686 195.919C418.065 194.402 417.756 192.551 417.756 190.371ZM418.146 210.037L440.754 196.947V265.786L418.146 278.877V210.037Z" fill="#5FD0F4"/>
<path d="M473.637 248.577C466.72 252.582 461.599 253.564 458.272 251.521C454.945 249.477 453.28 244.267 453.28 235.893V211.287L446.038 215.481V193.887L453.182 189.75V174.307L475.105 161.613V177.056L486.261 170.596V192.19L475.105 198.65V216.971C475.105 220.289 475.643 222.222 476.72 222.778C477.797 223.331 479.28 223.061 481.174 221.964C481.891 221.549 482.641 221.029 483.424 220.4C484.207 219.774 484.826 219.24 485.284 218.799V239.477C484.109 240.855 482.46 242.377 480.342 244.04C478.221 245.705 475.987 247.217 473.637 248.577Z" fill="#5FD0F4"/>
<path d="M519.733 176.342C519.733 174.249 519.195 173.011 518.118 172.631C517.043 172.252 515.623 172.571 513.861 173.591C511.772 174.801 509.801 176.531 507.941 178.787C506.082 181.041 504.433 183.369 502.997 185.772L491.743 177.369C494.875 171.543 498.595 166.29 502.9 161.617C507.207 156.942 511.643 153.282 516.211 150.637C521.105 147.803 525.149 146.377 528.347 146.358C531.543 146.339 534.071 147.407 535.931 149.557C537.791 151.71 539.095 154.707 539.846 158.545C540.596 162.387 540.971 166.707 540.971 171.505V207.757L520.518 219.6V214.104L520.32 214.218C519.016 217.591 517.157 220.545 514.743 223.074C512.328 225.607 509.978 227.534 507.697 228.856C505.674 230.027 503.601 230.836 501.482 231.277C499.36 231.721 497.434 231.571 495.708 230.824C493.977 230.082 492.558 228.638 491.451 226.483C490.34 224.336 489.786 221.211 489.786 217.108C489.786 212.313 490.716 207.868 492.576 203.78C494.435 199.694 496.799 195.969 499.67 192.605C502.541 189.241 505.753 186.226 509.311 183.556C512.866 180.888 516.34 178.57 519.733 176.606L519.733 176.342ZM519.93 191.41C516.603 193.337 513.927 195.365 511.904 197.498C509.881 199.628 508.871 202.002 508.871 204.619C508.871 205.58 509.033 206.291 509.359 206.757C509.686 207.223 510.11 207.523 510.631 207.655C511.153 207.792 511.725 207.789 512.344 207.646C512.965 207.505 513.535 207.284 514.058 206.981C516.211 205.735 517.939 203.818 519.245 201.23C520.549 198.643 521.203 195.908 521.203 193.03V190.673L519.93 191.41Z" fill="#5FD0F4"/>
<path d="M550.267 133.535L572.287 120.784V128.375L572.484 128.261C573.782 124.98 575.72 121.656 578.288 118.292C580.857 114.927 583.802 112.285 587.121 110.363C590.697 108.292 593.674 107.442 596.047 107.812C598.421 108.184 600.308 109.335 601.708 111.273C603.106 113.211 604.082 115.724 604.635 118.807C605.189 121.886 605.465 125.129 605.465 128.532V170.412L582.858 183.503V146.857C582.858 143.369 582.45 141.161 581.633 140.238C580.817 139.316 579.594 139.324 577.964 140.268C576.462 141.137 575.238 142.656 574.294 144.816C573.346 146.981 572.874 149.586 572.874 152.638V189.283L550.267 202.374L550.267 133.535Z" fill="#5FD0F4"/>
<path d="M657.53 118.41C657.53 123.035 656.799 127.337 655.338 131.325C653.876 135.314 652.027 138.893 649.785 142.066C647.544 145.24 645.093 148.009 642.431 150.381C639.767 152.752 637.232 154.635 634.825 156.029C630.387 158.599 626.032 160.271 621.759 161.044C617.486 161.817 613.782 161.538 610.652 160.211L621.711 136.663C623.276 137.677 625.12 138.156 627.241 138.108C629.359 138.058 631.4 137.465 633.357 136.331C634.14 135.878 634.875 135.256 635.56 134.468C636.245 133.68 636.587 132.76 636.587 131.713C636.587 130.582 635.984 130.034 634.777 130.077C633.569 130.125 631.464 130.537 628.463 131.313C626.833 131.733 625.168 131.935 623.473 131.912C621.775 131.895 620.226 131.46 618.824 130.613C617.42 129.77 616.261 128.412 615.349 126.538C614.436 124.669 613.98 122.076 613.98 118.761C613.98 114.312 614.712 110.09 616.182 106.1C617.649 102.109 619.509 98.4783 621.759 95.2131C624.011 91.9468 626.458 89.0894 629.1 86.6435C631.743 84.1975 634.238 82.295 636.587 80.9345C640.565 78.6309 644.514 77.13 648.429 76.4343C652.343 75.7386 655.868 75.8785 659 76.8554L648.429 99.8601C646.798 99.4091 645.133 99.2813 643.439 99.477C641.74 99.675 640.076 100.247 638.447 101.191C637.336 101.834 636.424 102.559 635.707 103.365C634.988 104.173 634.63 105.147 634.63 106.279C634.63 107.152 635.034 107.595 635.846 107.603C636.659 107.612 638.527 107.165 641.452 106.256C643.465 105.613 645.428 105.285 647.347 105.263C649.263 105.245 650.985 105.643 652.512 106.46C654.038 107.279 655.256 108.647 656.166 110.562C657.076 112.477 657.53 115.095 657.53 118.41Z" fill="#5FD0F4"/>
</g>
<defs>
<clipPath id="clip0_174_169">
<rect width="222" height="221" fill="white" transform="translate(104 92)"/>
</clipPath>
<clipPath id="clip1_174_169">
<rect width="303" height="229" fill="white" transform="translate(356 76)"/>
</clipPath>
</defs>
</svg>
