<svg width="684" height="380" viewBox="0 0 684 380" fill="none" xmlns="http://www.w3.org/2000/svg">
<g clip-path="url(#clip0_174_174)">
<path d="M226.603 273.615C221.102 270.403 216.313 266.581 212.241 262.147C208.164 257.71 204.766 252.912 202.053 247.755C199.335 242.596 197.312 237.188 195.99 231.546C194.663 225.906 194 220.266 194 214.638V157L217.656 170.813V224.966C217.656 229.52 218.469 233.545 220.091 237.039C221.713 240.534 224.018 243.156 226.999 244.896C229.984 246.639 232.285 246.707 233.907 245.107C235.533 243.509 236.342 240.431 236.342 235.877V181.724L259.901 195.481V253.119C259.901 258.747 259.189 263.584 257.765 267.617C256.338 271.654 254.235 274.653 251.452 276.601C248.669 278.548 245.203 279.338 241.066 278.979C236.924 278.616 232.103 276.827 226.603 273.615Z" fill="#5FD0F4"/>
<path d="M295.084 313.602C292.236 311.94 289.433 309.971 286.687 307.702C283.937 305.43 281.284 302.899 278.736 300.124C276.184 297.347 273.781 294.433 271.529 291.384C269.276 288.334 267.254 285.217 265.466 282.04L279.876 269.337C281.535 272.721 283.739 276.152 286.489 279.634C289.235 283.114 292.07 285.707 294.987 287.41C296.309 288.182 297.522 288.58 298.614 288.59C299.707 288.601 300.252 287.753 300.252 286.051C300.252 284.349 300.07 284.292 299.707 283.452C299.343 282.613 298.695 281.586 297.769 280.374C296.839 279.16 295.565 277.68 293.943 275.926C292.317 274.169 290.279 272.041 287.828 269.535C285.446 267.07 283.156 264.457 280.972 261.703C278.784 258.948 276.847 256.006 275.156 252.87C273.466 249.734 272.123 246.375 271.132 242.797C270.137 239.216 269.64 235.326 269.64 231.116C269.64 225.209 270.534 220.719 272.321 217.645C274.113 214.573 276.414 212.536 279.233 211.542C282.048 210.546 285.211 210.489 288.726 211.38C292.236 212.263 295.715 213.71 299.161 215.722C303.8 218.431 308.519 222.398 313.324 227.614C318.129 232.83 322.352 238.781 326 245.471L311.286 257.119C309.696 253.507 307.743 250.338 305.421 247.597C303.104 244.858 301.017 242.947 299.16 241.863C297.438 240.857 296.046 240.377 294.987 240.429C293.927 240.481 293.397 241.268 293.397 242.785C293.397 244.213 293.943 245.607 295.035 246.959C296.127 248.311 297.903 250.242 300.354 252.748C302.869 255.286 305.522 258.089 308.305 261.143C311.088 264.197 313.656 267.551 316.01 271.205C318.36 274.852 320.297 278.781 321.822 282.976C323.347 287.172 324.111 291.73 324.111 296.644C324.111 302.36 323.266 306.852 321.575 310.108C319.884 313.364 317.664 315.596 314.914 316.804C312.164 318.012 309.065 318.309 305.62 317.676C302.174 317.05 298.663 315.692 295.084 313.602Z" fill="#5FD0F4"/>
</g>
<g clip-path="url(#clip1_174_174)">
<path d="M384.235 313.941C377.159 318.028 371.92 319.027 368.514 316.946C365.113 314.857 363.41 309.543 363.41 300.996V275.893L356 280.173V258.14L363.308 253.919V238.162L385.734 225.21V240.967L397.148 234.375V256.408L385.734 263V281.691C385.734 285.076 386.284 287.052 387.388 287.615C388.487 288.181 390.007 287.906 391.942 286.789C392.675 286.365 393.445 285.833 394.244 285.193C395.046 284.55 395.678 284.006 396.146 283.556V304.655C394.944 306.061 393.258 307.616 391.091 309.313C388.923 311.01 386.638 312.553 384.235 313.941Z" fill="#5FD0F4"/>
<path d="M461.422 232.103C461.422 238.156 460.603 244.019 458.969 249.679C457.332 255.341 455.128 260.596 452.362 265.443C449.592 270.298 446.386 274.616 442.748 278.407C439.11 282.198 435.289 285.252 431.285 287.565C427.346 289.84 423.561 291.178 419.923 291.59C416.286 292.001 413.1 291.374 410.363 289.7C407.625 288.032 405.442 285.311 403.804 281.54C402.17 277.767 401.352 272.85 401.352 266.797C401.352 260.837 402.17 255.039 403.804 249.422C405.442 243.804 407.625 238.603 410.363 233.817C413.1 229.03 416.286 224.767 419.923 221.019C423.561 217.272 427.346 214.26 431.285 211.985C435.289 209.672 439.11 208.291 442.748 207.837C446.386 207.382 449.592 207.954 452.362 209.559C455.128 211.168 457.332 213.834 458.969 217.561C460.603 221.29 461.422 226.142 461.422 232.103ZM431.285 238.028C428.751 239.491 426.698 241.834 425.13 245.055C423.561 248.275 422.775 251.441 422.775 254.56C422.775 257.852 423.578 260.193 425.178 261.583C426.779 262.973 428.849 262.935 431.387 261.469C433.921 260.006 435.99 257.653 437.595 254.411C439.196 251.172 439.998 247.905 439.998 244.612C439.998 241.493 439.18 239.255 437.542 237.886C435.909 236.515 433.823 236.562 431.285 238.028Z" fill="#5FD0F4"/>
<path d="M506.97 243.054C504.366 244.557 501.8 245.393 499.262 245.566C496.724 245.744 494.659 245.133 493.054 243.745L492.854 243.86V281.384L469.928 294.626V192.34L491.653 179.792V186.867L491.852 186.751C493.787 182.7 496.125 179.122 498.863 176.03C501.596 172.935 504.269 170.637 506.872 169.133C510.807 166.86 514.278 165.921 517.284 166.325C520.286 166.727 522.788 168.086 524.792 170.4C526.792 172.717 528.311 175.757 529.346 179.522C530.381 183.282 530.898 187.439 530.898 191.976C530.898 196.606 530.381 201.447 529.346 206.494C528.311 211.542 526.792 216.402 524.792 221.073C522.788 225.752 520.303 230.012 517.333 233.863C514.363 237.713 510.909 240.779 506.97 243.054ZM509.475 204.349C509.475 201.236 508.738 198.945 507.271 197.477C505.804 196.01 503.666 196.088 500.863 197.706C498.126 199.287 495.942 201.706 494.309 204.964C492.671 208.224 491.852 211.414 491.852 214.528C491.852 217.82 492.671 220.156 494.309 221.52C495.942 222.897 498.126 222.787 500.863 221.206C503.666 219.588 505.804 217.217 507.271 214.104C508.738 210.986 509.475 207.735 509.475 204.349Z" fill="#5FD0F4"/>
<path d="M539.107 132.085C539.107 129.95 539.421 127.747 540.057 125.462C540.692 123.182 541.56 121.013 542.66 118.949C543.76 116.896 545.047 115.017 546.513 113.322C547.98 111.627 549.552 110.295 551.218 109.333C552.819 108.408 554.323 107.964 555.724 108.002C557.125 108.041 558.376 108.454 559.48 109.234C560.58 110.028 561.447 111.195 562.083 112.741C562.714 114.294 563.032 116.132 563.032 118.267C563.032 120.495 562.714 122.749 562.083 125.026C561.447 127.311 560.58 129.453 559.48 131.468C558.376 133.492 557.125 135.301 555.724 136.909C554.323 138.522 552.819 139.792 551.218 140.717C549.552 141.679 547.98 142.185 546.513 142.228C545.047 142.277 543.76 141.933 542.66 141.183C541.56 140.438 540.692 139.298 540.057 137.747C539.421 136.202 539.107 134.313 539.107 132.085ZM539.507 152.154L562.633 138.797V209.036L539.507 222.393V152.154Z" fill="#5FD0F4"/>
<path d="M601.276 142.114C601.276 139.979 600.726 138.715 599.622 138.331C598.522 137.945 597.071 138.267 595.267 139.309C593.132 140.542 591.116 142.309 589.213 144.609C587.311 146.909 585.625 149.284 584.154 151.737L572.642 143.166C575.848 137.218 579.653 131.858 584.056 127.092C588.46 122.321 592.998 118.586 597.67 115.888C602.677 112.996 606.816 111.54 610.087 111.52C613.354 111.502 615.941 112.595 617.843 114.789C619.746 116.983 621.082 120.042 621.848 123.957C622.617 127.875 623 132.284 623 137.179V174.171L602.078 186.254V180.647L601.874 180.765C600.542 184.202 598.64 187.219 596.171 189.796C593.699 192.382 591.295 194.351 588.961 195.7C586.891 196.895 584.773 197.716 582.606 198.169C580.435 198.619 578.463 198.47 576.699 197.707C574.927 196.948 573.477 195.476 572.344 193.278C571.208 191.087 570.642 187.898 570.642 183.709C570.642 178.819 571.591 174.283 573.493 170.114C575.396 165.945 577.815 162.141 580.752 158.711C583.69 155.276 586.973 152.2 590.615 149.478C594.249 146.754 597.805 144.39 601.276 142.386V142.114ZM601.475 157.49C598.074 159.454 595.336 161.525 593.267 163.703C591.197 165.877 590.163 168.3 590.163 170.968C590.163 171.951 590.33 172.675 590.664 173.151C590.998 173.626 591.43 173.931 591.963 174.068C592.497 174.205 593.083 174.203 593.715 174.056C594.35 173.912 594.933 173.69 595.471 173.379C597.67 172.108 599.438 170.153 600.775 167.512C602.111 164.871 602.779 162.078 602.779 159.144V156.737L601.475 157.49Z" fill="#5FD0F4"/>
</g>
<defs>
<clipPath id="clip0_174_174">
<rect width="132" height="161" fill="white" transform="translate(194 157)"/>
</clipPath>
<clipPath id="clip1_174_174">
<rect width="267" height="210" fill="white" transform="translate(356 108)"/>
</clipPath>
</defs>
</svg>
