<svg width="684" height="380" viewBox="0 0 684 380" fill="none" xmlns="http://www.w3.org/2000/svg">
<g clip-path="url(#clip0_174_174)">
<path d="M384.235 313.941C377.159 318.028 371.92 319.027 368.514 316.946C365.113 314.857 363.41 309.543 363.41 300.996V275.893L356 280.173V258.14L363.308 253.919V238.162L385.734 225.21V240.967L397.148 234.375V256.408L385.734 263V281.691C385.734 285.076 386.284 287.052 387.388 287.615C388.487 288.181 390.007 287.906 391.942 286.789C392.675 286.365 393.445 285.833 394.244 285.193C395.046 284.55 395.678 284.006 396.146 283.556V304.655C394.944 306.061 393.258 307.616 391.091 309.313C388.923 311.01 386.638 312.553 384.235 313.941Z" fill="#5FD0F4"/>
<path d="M461.422 232.103C461.422 238.156 460.603 244.019 458.969 249.679C457.332 255.341 455.128 260.596 452.362 265.443C449.592 270.298 446.386 274.616 442.748 278.407C439.11 282.198 435.289 285.252 431.285 287.565C427.346 289.84 423.561 291.178 419.923 291.59C416.286 292.001 413.1 291.374 410.363 289.7C407.625 288.032 405.442 285.311 403.804 281.54C402.17 277.767 401.352 272.85 401.352 266.797C401.352 260.837 402.17 255.039 403.804 249.422C405.442 243.804 407.625 238.603 410.363 233.817C413.1 229.03 416.286 224.767 419.923 221.019C423.561 217.272 427.346 214.26 431.285 211.985C435.289 209.672 439.11 208.291 442.748 207.837C446.386 207.382 449.592 207.954 452.362 209.559C455.128 211.168 457.332 213.834 458.969 217.561C460.603 221.29 461.422 226.142 461.422 232.103ZM431.285 238.028C428.751 239.491 426.698 241.834 425.13 245.055C423.561 248.275 422.775 251.441 422.775 254.56C422.775 257.852 423.578 260.193 425.178 261.583C426.779 262.973 428.849 262.935 431.387 261.469C433.921 260.006 435.99 257.653 437.595 254.411C439.196 251.172 439.998 247.905 439.998 244.612C439.998 241.493 439.18 239.255 437.542 237.886C435.909 236.515 433.823 236.562 431.285 238.028Z" fill="#5FD0F4"/>
<path d="M506.97 243.054C504.366 244.557 501.8 245.393 499.262 245.566C496.724 245.744 494.659 245.133 493.054 243.745L492.854 243.86V281.384L469.928 294.626V192.34L491.653 179.792V186.867L491.852 186.751C493.787 182.7 496.125 179.122 498.863 176.03C501.596 172.935 504.269 170.637 506.872 169.133C510.807 166.86 514.278 165.921 517.284 166.325C520.286 166.727 522.788 168.086 524.792 170.4C526.792 172.717 528.311 175.757 529.346 179.522C530.381 183.282 530.898 187.439 530.898 191.976C530.898 196.606 530.381 201.447 529.346 206.494C528.311 211.542 526.792 216.402 524.792 221.073C522.788 225.752 520.303 230.012 517.333 233.863C514.363 237.713 510.909 240.779 506.97 243.054ZM509.475 204.349C509.475 201.236 508.738 198.945 507.271 197.477C505.804 196.01 503.666 196.088 500.863 197.706C498.126 199.287 495.942 201.706 494.309 204.964C492.671 208.224 491.852 211.414 491.852 214.528C491.852 217.82 492.671 220.156 494.309 221.52C495.942 222.897 498.126 222.787 500.863 221.206C503.666 219.588 505.804 217.217 507.271 214.104C508.738 210.986 509.475 207.735 509.475 204.349Z" fill="#5FD0F4"/>
<path d="M539.107 132.085C539.107 129.95 539.421 127.747 540.057 125.462C540.692 123.182 541.56 121.013 542.66 118.949C543.76 116.896 545.047 115.017 546.513 113.322C547.98 111.627 549.552 110.295 551.218 109.333C552.819 108.408 554.323 107.964 555.724 108.002C557.125 108.041 558.376 108.454 559.48 109.234C560.58 110.028 561.447 111.195 562.083 112.741C562.714 114.294 563.032 116.132 563.032 118.267C563.032 120.495 562.714 122.749 562.083 125.026C561.447 127.311 560.58 129.453 559.48 131.468C558.376 133.492 557.125 135.301 555.724 136.909C554.323 138.522 552.819 139.792 551.218 140.717C549.552 141.679 547.98 142.185 546.513 142.228C545.047 142.277 543.76 141.933 542.66 141.183C541.56 140.438 540.692 139.298 540.057 137.747C539.421 136.202 539.107 134.313 539.107 132.085ZM539.507 152.154L562.633 138.797V209.036L539.507 222.393V152.154Z" fill="#5FD0F4"/>
<path d="M601.276 142.114C601.276 139.979 600.726 138.715 599.622 138.331C598.522 137.945 597.071 138.267 595.267 139.309C593.132 140.542 591.116 142.309 589.213 144.609C587.311 146.909 585.625 149.284 584.154 151.737L572.642 143.166C575.848 137.218 579.653 131.858 584.056 127.092C588.46 122.321 592.998 118.586 597.67 115.888C602.677 112.996 606.816 111.54 610.087 111.52C613.354 111.502 615.941 112.595 617.843 114.789C619.746 116.983 621.082 120.042 621.848 123.957C622.617 127.875 623 132.284 623 137.179V174.171L602.078 186.254V180.647L601.874 180.765C600.542 184.202 598.64 187.219 596.171 189.796C593.699 192.382 591.295 194.351 588.961 195.7C586.891 196.895 584.773 197.716 582.606 198.169C580.435 198.619 578.463 198.47 576.699 197.707C574.927 196.948 573.477 195.476 572.344 193.278C571.208 191.087 570.642 187.898 570.642 183.709C570.642 178.819 571.591 174.283 573.493 170.114C575.396 165.945 577.815 162.141 580.752 158.711C583.69 155.276 586.973 152.2 590.615 149.478C594.249 146.754 597.805 144.39 601.276 142.386V142.114ZM601.475 157.49C598.074 159.454 595.336 161.525 593.267 163.703C591.197 165.877 590.163 168.3 590.163 170.968C590.163 171.951 590.33 172.675 590.664 173.151C590.998 173.626 591.43 173.931 591.963 174.068C592.497 174.205 593.083 174.203 593.715 174.056C594.35 173.912 594.933 173.69 595.471 173.379C597.67 172.108 599.438 170.153 600.775 167.512C602.111 164.871 602.779 162.078 602.779 159.144V156.737L601.475 157.49Z" fill="#5FD0F4"/>
</g>
<g clip-path="url(#clip1_174_174)">
<path d="M160.611 234.344C155.109 231.167 150.317 227.383 146.244 223.001C142.166 218.61 138.771 213.863 136.052 208.762C133.334 203.661 131.316 198.316 129.99 192.729C128.663 187.151 128 181.573 128 176.004V119L151.662 132.66V186.216C151.662 190.729 152.474 194.709 154.1 198.167C155.721 201.624 158.023 204.212 161.003 205.931C163.988 207.659 166.29 207.725 167.916 206.146C169.536 204.567 170.349 201.521 170.349 197.017V143.452L193.913 157.056V214.069C193.913 219.638 193.198 224.412 191.774 228.411C190.344 232.401 188.243 235.363 185.459 237.287C182.675 239.221 179.214 240.006 175.071 239.642C170.928 239.287 166.108 237.521 160.611 234.344Z" fill="#5FD0F4"/>
<path d="M205.59 219.479C205.59 208.696 206.814 198.605 209.27 189.197C211.718 179.788 215.431 171.958 220.401 165.726L235.613 181.937C226.795 193.112 222.39 208.855 222.39 229.186C222.39 249.518 226.795 270.353 235.613 291.703L220.401 290.348C215.431 278.37 211.718 266.261 209.27 254.021C206.814 241.781 205.59 230.27 205.59 219.479Z" fill="#5FD0F4"/>
<path d="M283.824 280.706C283.824 285.387 283.081 288.891 281.596 291.217C280.111 293.544 278.233 295.001 275.958 295.581C273.679 296.169 271.19 296.104 268.485 295.375C265.781 294.656 263.207 293.591 260.76 292.18C256.253 289.573 251.83 286.153 247.49 281.93C243.151 277.697 239.387 273.072 236.206 268.055L247.439 257.179C249.027 260.038 250.9 262.692 253.058 265.121C255.211 267.56 257.28 269.354 259.27 270.503C260.064 270.961 260.811 271.194 261.507 271.194C262.203 271.194 262.549 270.671 262.549 269.606C262.549 268.466 261.937 267.205 260.713 265.831C259.485 264.458 257.346 262.412 254.3 259.683C252.642 258.188 250.951 256.441 249.228 254.432C247.504 252.423 245.93 250.162 244.506 247.658C243.081 245.154 241.904 242.426 240.979 239.455C240.05 236.493 239.588 233.326 239.588 229.971C239.588 225.458 240.33 222.048 241.825 219.722C243.315 217.404 245.202 215.909 247.49 215.246C249.774 214.573 252.259 214.555 254.945 215.171C257.63 215.797 260.162 216.797 262.549 218.171C266.589 220.506 270.601 223.618 274.576 227.505C278.555 231.392 282.133 235.671 285.314 240.333L274.576 251.237C272.922 248.864 271.231 246.78 269.508 244.995C267.785 243.202 266.094 241.828 264.44 240.875C263.31 240.221 262.385 239.885 261.657 239.866C260.923 239.838 260.564 240.408 260.564 241.557C260.564 242.435 260.975 243.36 261.797 244.313C262.623 245.285 264.52 247.023 267.49 249.527C269.536 251.237 271.53 253.218 273.478 255.441C275.426 257.674 277.173 260.094 278.723 262.711C280.274 265.336 281.516 268.148 282.436 271.157C283.361 274.166 283.824 277.342 283.824 280.706Z" fill="#5FD0F4"/>
<path d="M316 283.238C316 294.03 314.771 304.12 312.324 313.539C309.867 322.947 306.159 330.768 301.189 337L285.977 320.789C294.79 309.614 299.199 293.871 299.199 273.54C299.199 253.218 294.79 232.373 285.977 211.023L301.189 212.387C306.159 224.356 309.867 236.465 312.324 248.705C314.771 260.945 316 272.456 316 283.238Z" fill="#5FD0F4"/>
</g>
<defs>
<clipPath id="clip0_174_174">
<rect width="267" height="210" fill="white" transform="translate(356 108)"/>
</clipPath>
<clipPath id="clip1_174_174">
<rect width="188" height="218" fill="white" transform="translate(128 119)"/>
</clipPath>
</defs>
</svg>
