<svg width="686" height="837" viewBox="0 0 686 837" fill="none" xmlns="http://www.w3.org/2000/svg">
<path d="M343.415 397.087L0.82959 198.544L343.415 0L686 198.544L343.415 397.087Z" fill="url(#paint0_linear_465_116)"/>
<path d="M686 638.837L343.415 836.216V397.219L686 198.609V638.837Z" fill="url(#paint1_linear_465_116)"/>
<path d="M0.829635 638.979L343.415 836.859V397.219L0.829635 198.609V638.979Z" fill="url(#paint2_linear_465_116)"/>
<g clip-path="url(#clip0_465_116)">
<path d="M222.182 205.237L200.296 217.841L235.866 238.324L214.73 250.496L179.161 230.012L137.939 253.751L116 241.117L222.128 180L282.622 214.837L260.737 227.44L222.182 205.237Z" fill="#5FD0F4"/>
<path d="M288.429 314.433C281.322 316.382 274.163 317.439 266.955 317.604C259.745 317.769 252.645 317.046 245.659 315.44C238.669 313.832 232.19 311.309 226.219 307.871C220.16 304.382 215.757 300.638 213.011 296.638C210.261 292.638 209.074 288.588 209.446 284.486C209.818 280.384 211.72 276.299 215.149 272.232C218.577 268.164 223.489 264.289 229.886 260.605L295.991 222.536L318.06 235.246L254.053 272.106C251.153 273.776 248.731 275.544 246.782 277.414C244.832 279.285 243.501 281.195 242.798 283.148C242.089 285.1 242.241 287.057 243.248 289.018C244.256 290.98 246.318 292.857 249.434 294.652C252.549 296.446 255.809 297.633 259.215 298.214C262.621 298.794 266.04 298.893 269.474 298.51C272.905 298.128 276.225 297.364 279.431 296.216C282.633 295.068 285.684 293.661 288.584 291.992L352.59 255.131L374.788 267.915L308.684 305.983C302.287 309.667 295.536 312.483 288.429 314.433Z" fill="#5FD0F4"/>
<path d="M410.153 313.486L325.909 362L303.71 349.216L387.954 300.702L361.991 285.75L383.875 273.147L458 315.835L436.116 328.438L410.153 313.486Z" fill="#5FD0F4"/>
</g>
<g clip-path="url(#clip1_465_116)">
<path d="M366.849 411.302L473.003 350V421.385L451.412 433.853V387.213L431.321 398.815V442.906L410.78 454.768V410.677L388.739 423.405V472.745L366.849 485.386L366.849 411.302Z" fill="#222222"/>
<path d="M366.849 411.302L473.003 350V421.385L451.412 433.853V387.213L431.321 398.815V442.906L410.78 454.768V410.677L388.739 423.405V472.745L366.849 485.386L366.849 411.302Z" fill="black" fill-opacity="0.2"/>
<path d="M366.849 411.302L473.003 350V421.385L451.412 433.853V387.213L431.321 398.815V442.906L410.78 454.768V410.677L388.739 423.405V472.745L366.849 485.386L366.849 411.302Z" fill="black" fill-opacity="0.2"/>
<path d="M366.849 411.302L473.003 350V421.385L451.412 433.853V387.213L431.321 398.815V442.906L410.78 454.768V410.677L388.739 423.405V472.745L366.849 485.386L366.849 411.302Z" fill="black" fill-opacity="0.2"/>
<path d="M366.849 411.302L473.003 350V421.385L451.412 433.853V387.213L431.321 398.815V442.906L410.78 454.768V410.677L388.739 423.405V472.745L366.849 485.386L366.849 411.302Z" fill="black" fill-opacity="0.2"/>
<path d="M389.414 576.056C384.167 576.936 379.668 576.46 375.92 574.626C372.172 572.791 369.248 569.654 367.149 565.219C365.049 560.782 364 555.115 364 548.217C364 541.218 365.049 534.313 367.149 527.502C369.248 520.69 372.172 514.254 375.92 508.19C379.668 502.126 384.167 496.529 389.414 491.4C394.662 486.269 400.483 481.858 406.882 478.163L473.003 439.979V465.475L408.981 502.446C406.08 504.121 403.332 506.083 400.735 508.332C398.134 510.584 395.81 513.074 393.763 515.808C391.713 518.541 390.089 521.529 388.889 524.771C387.69 528.013 387.091 531.434 387.091 535.033C387.091 538.632 387.69 541.36 388.889 543.217C390.089 545.074 391.713 546.21 393.763 546.626C395.81 547.042 398.134 546.851 400.735 546.05C403.332 545.248 406.08 544.012 408.981 542.338L473.003 505.366V531.01L406.882 569.194C400.483 572.889 394.662 575.175 389.414 576.056Z" fill="#222222"/>
<path d="M389.414 576.056C384.167 576.936 379.668 576.46 375.92 574.626C372.172 572.791 369.248 569.654 367.149 565.219C365.049 560.782 364 555.115 364 548.217C364 541.218 365.049 534.313 367.149 527.502C369.248 520.69 372.172 514.254 375.92 508.19C379.668 502.126 384.167 496.529 389.414 491.4C394.662 486.269 400.483 481.858 406.882 478.163L473.003 439.979V465.475L408.981 502.446C406.08 504.121 403.332 506.083 400.735 508.332C398.134 510.584 395.81 513.074 393.763 515.808C391.713 518.541 390.089 521.529 388.889 524.771C387.69 528.013 387.091 531.434 387.091 535.033C387.091 538.632 387.69 541.36 388.889 543.217C390.089 545.074 391.713 546.21 393.763 546.626C395.81 547.042 398.134 546.851 400.735 546.05C403.332 545.248 406.08 544.012 408.981 542.338L473.003 505.366V531.01L406.882 569.194C400.483 572.889 394.662 575.175 389.414 576.056Z" fill="black" fill-opacity="0.2"/>
<path d="M389.414 576.056C384.167 576.936 379.668 576.46 375.92 574.626C372.172 572.791 369.248 569.654 367.149 565.219C365.049 560.782 364 555.115 364 548.217C364 541.218 365.049 534.313 367.149 527.502C369.248 520.69 372.172 514.254 375.92 508.19C379.668 502.126 384.167 496.529 389.414 491.4C394.662 486.269 400.483 481.858 406.882 478.163L473.003 439.979V465.475L408.981 502.446C406.08 504.121 403.332 506.083 400.735 508.332C398.134 510.584 395.81 513.074 393.763 515.808C391.713 518.541 390.089 521.529 388.889 524.771C387.69 528.013 387.091 531.434 387.091 535.033C387.091 538.632 387.69 541.36 388.889 543.217C390.089 545.074 391.713 546.21 393.763 546.626C395.81 547.042 398.134 546.851 400.735 546.05C403.332 545.248 406.08 544.012 408.981 542.338L473.003 505.366V531.01L406.882 569.194C400.483 572.889 394.662 575.175 389.414 576.056Z" fill="black" fill-opacity="0.2"/>
<path d="M389.414 576.056C384.167 576.936 379.668 576.46 375.92 574.626C372.172 572.791 369.248 569.654 367.149 565.219C365.049 560.782 364 555.115 364 548.217C364 541.218 365.049 534.313 367.149 527.502C369.248 520.69 372.172 514.254 375.92 508.19C379.668 502.126 384.167 496.529 389.414 491.4C394.662 486.269 400.483 481.858 406.882 478.163L473.003 439.979V465.475L408.981 502.446C406.08 504.121 403.332 506.083 400.735 508.332C398.134 510.584 395.81 513.074 393.763 515.808C391.713 518.541 390.089 521.529 388.889 524.771C387.69 528.013 387.091 531.434 387.091 535.033C387.091 538.632 387.69 541.36 388.889 543.217C390.089 545.074 391.713 546.21 393.763 546.626C395.81 547.042 398.134 546.851 400.735 546.05C403.332 545.248 406.08 544.012 408.981 542.338L473.003 505.366V531.01L406.882 569.194C400.483 572.889 394.662 575.175 389.414 576.056Z" fill="black" fill-opacity="0.2"/>
<path d="M389.414 576.056C384.167 576.936 379.668 576.46 375.92 574.626C372.172 572.791 369.248 569.654 367.149 565.219C365.049 560.782 364 555.115 364 548.217C364 541.218 365.049 534.313 367.149 527.502C369.248 520.69 372.172 514.254 375.92 508.19C379.668 502.126 384.167 496.529 389.414 491.4C394.662 486.269 400.483 481.858 406.882 478.163L473.003 439.979V465.475L408.981 502.446C406.08 504.121 403.332 506.083 400.735 508.332C398.134 510.584 395.81 513.074 393.763 515.808C391.713 518.541 390.089 521.529 388.889 524.771C387.69 528.013 387.091 531.434 387.091 535.033C387.091 538.632 387.69 541.36 388.889 543.217C390.089 545.074 391.713 546.21 393.763 546.626C395.81 547.042 398.134 546.851 400.735 546.05C403.332 545.248 406.08 544.012 408.981 542.338L473.003 505.366V531.01L406.882 569.194C400.483 572.889 394.662 575.175 389.414 576.056Z" fill="black" fill-opacity="0.2"/>
</g>
<g clip-path="url(#clip2_465_116)">
<path d="M367.634 671.225L409.454 623.574V614.784L367.634 639.251V614.065L473.003 552.417V593.138C473.003 598.265 472.482 603.57 471.441 609.057C470.399 614.543 468.636 619.948 466.158 625.27C463.676 630.591 460.402 635.598 456.334 640.292C452.265 644.985 447.206 649.101 441.155 652.642C434.01 656.822 428.006 658.374 423.146 657.296C418.284 656.219 414.812 652.821 412.729 647.103L367.634 701.388V671.225ZM440.708 627.416C443.187 625.965 445.196 624.257 446.736 622.296C448.273 620.337 449.463 618.275 450.307 616.116C451.149 613.954 451.721 611.752 452.019 609.506C452.317 607.259 452.466 605.177 452.466 603.258V589.468L427.908 603.836V616.112C427.908 618.232 428.08 620.304 428.429 622.324C428.777 624.343 429.397 625.999 430.289 627.297C431.183 628.593 432.471 629.329 434.159 629.503C435.845 629.678 438.029 628.983 440.708 627.416Z" fill="#5FD0F4"/>
</g>
<g clip-path="url(#clip3_465_116)">
<path d="M170.949 454.177V429.859L206.808 407.231C209.059 405.642 210.878 403.743 212.265 401.535C213.649 399.329 214.344 396.373 214.344 392.668C214.344 388.27 213.304 384.106 211.226 380.179C209.147 376.252 206.374 373.282 202.91 371.273C199.273 369.164 196.305 369.156 194.01 371.245C191.715 373.336 190.35 377.039 189.917 382.356L169 366.399C169.519 360.436 170.796 355.598 172.833 351.885C174.866 348.171 177.445 345.499 180.563 343.859C183.681 342.224 187.254 341.666 191.282 342.191C195.31 342.717 199.575 344.284 204.079 346.896C208.322 349.356 212.437 352.499 216.423 356.316C220.406 360.134 223.958 364.513 227.076 369.453C230.194 374.394 232.683 379.782 234.547 385.618C236.408 391.454 237.341 397.563 237.341 403.94C237.341 408.349 236.906 412.07 236.041 415.105C235.174 418.142 233.983 420.727 232.469 422.864C230.951 425.001 229.221 426.81 227.271 428.289C225.322 429.768 223.308 431.183 221.229 432.528L199.922 445.576L237.47 467.349V492.751L170.949 454.177Z" fill="#5FD0F4"/>
<path d="M324 480.987C324 489.687 323.351 497.605 322.051 504.739C320.752 511.873 318.673 517.598 315.815 521.914C312.956 526.232 309.253 528.839 304.706 529.739C300.159 530.64 294.637 529.208 288.14 525.44C281.644 521.673 276.101 516.689 271.51 510.49C266.918 504.29 263.172 497.363 260.271 489.706C257.369 482.049 255.269 473.901 253.97 465.26C252.671 456.62 252.021 447.948 252.021 439.248C252.021 430.549 252.671 422.661 253.97 415.584C255.269 408.508 257.369 402.883 260.271 398.706C263.172 394.534 266.918 392.034 271.51 391.218C276.101 390.4 281.644 391.874 288.14 395.641C294.637 399.408 300.159 404.351 304.706 410.468C309.253 416.584 312.956 423.402 315.815 430.915C318.673 438.432 320.752 446.48 322.051 455.063C323.351 463.646 324 472.288 324 480.987ZM301.653 468.029C301.653 464.2 301.479 459.867 301.133 455.025C300.786 450.186 300.136 445.486 299.184 440.933C298.231 436.379 296.866 432.224 295.091 428.468C293.315 424.714 290.998 422.006 288.14 420.348C285.282 418.691 282.944 418.7 281.125 420.369C279.305 422.041 277.897 424.588 276.902 428.012C275.905 431.435 275.233 435.369 274.888 439.806C274.541 444.246 274.369 448.379 274.369 452.207C274.369 456.152 274.541 460.572 274.888 465.47C275.233 470.369 275.905 475.108 276.902 479.687C277.897 484.267 279.305 488.448 281.125 492.228C282.944 496.009 285.282 498.728 288.14 500.385C290.998 502.042 293.315 502.024 295.091 500.327C296.866 498.631 298.231 496.058 299.184 492.608C300.136 489.159 300.786 485.186 301.133 480.689C301.479 476.193 301.653 471.974 301.653 468.029Z" fill="#5FD0F4"/>
</g>
<g clip-path="url(#clip4_465_116)">
<path d="M239.331 613.492C239.331 620.137 238.301 625.308 236.245 629.007C234.189 632.708 231.498 635.189 228.172 636.452C224.846 637.716 221.105 637.94 216.949 637.127C212.791 636.313 208.568 634.691 204.281 632.258C200.081 629.874 195.989 626.921 192.008 623.399C188.024 619.876 184.394 615.896 181.112 611.453C177.83 607.009 174.963 602.056 172.513 596.595C170.063 591.134 168.224 585.187 167 578.755L187.478 583.322C188.352 587.835 190.147 592.381 192.861 596.958C195.572 601.538 199.031 605.02 203.231 607.403C204.807 608.298 206.402 608.917 208.022 609.261C209.641 609.607 211.085 609.538 212.354 609.054C213.622 608.568 214.672 607.589 215.505 606.11C216.336 604.632 216.752 602.46 216.752 599.592C216.752 596.496 216.204 593.603 215.111 590.919C214.015 588.232 212.572 585.779 210.78 583.558C208.985 581.335 206.95 579.319 204.675 577.513C202.399 575.704 200.123 574.155 197.849 572.865L191.941 569.512V548.521L198.374 552.172C200.475 553.364 202.486 554.304 204.413 554.994C206.337 555.683 208.065 555.915 209.598 555.687C211.128 555.459 212.354 554.685 213.273 553.359C214.193 552.034 214.652 549.87 214.652 546.87C214.652 542.485 213.471 538.468 211.108 534.818C208.744 531.169 206.031 528.474 202.968 526.736C199.818 524.948 197.082 524.629 194.764 525.779C192.444 526.93 190.935 529.369 190.235 533.101L169.757 515.287C170.893 510.769 172.6 507.238 174.876 504.686C177.151 502.135 179.842 500.449 182.95 499.632C186.055 498.814 189.448 498.791 193.123 499.556C196.799 500.326 200.56 501.799 204.412 503.985C208.525 506.319 212.528 509.282 216.423 512.869C220.317 516.458 223.796 520.558 226.859 525.168C229.922 529.778 232.394 534.772 234.277 540.146C236.158 545.52 237.099 551.138 237.099 556.996C237.099 563.775 235.632 568.658 232.702 571.645C229.768 574.632 226.027 575.64 221.477 574.666V575.182C224.103 577.473 226.509 580.128 228.698 583.146C230.884 586.163 232.767 589.35 234.343 592.706C235.917 596.062 237.142 599.507 238.018 603.04C238.892 606.571 239.331 610.056 239.331 613.492Z" fill="#222222"/>
<path d="M239.331 613.492C239.331 620.137 238.301 625.308 236.245 629.007C234.189 632.708 231.498 635.189 228.172 636.452C224.846 637.716 221.105 637.94 216.949 637.127C212.791 636.313 208.568 634.691 204.281 632.258C200.081 629.874 195.989 626.921 192.008 623.399C188.024 619.876 184.394 615.896 181.112 611.453C177.83 607.009 174.963 602.056 172.513 596.595C170.063 591.134 168.224 585.187 167 578.755L187.478 583.322C188.352 587.835 190.147 592.381 192.861 596.958C195.572 601.538 199.031 605.02 203.231 607.403C204.807 608.298 206.402 608.917 208.022 609.261C209.641 609.607 211.085 609.538 212.354 609.054C213.622 608.568 214.672 607.589 215.505 606.11C216.336 604.632 216.752 602.46 216.752 599.592C216.752 596.496 216.204 593.603 215.111 590.919C214.015 588.232 212.572 585.779 210.78 583.558C208.985 581.335 206.95 579.319 204.675 577.513C202.399 575.704 200.123 574.155 197.849 572.865L191.941 569.512V548.521L198.374 552.172C200.475 553.364 202.486 554.304 204.413 554.994C206.337 555.683 208.065 555.915 209.598 555.687C211.128 555.459 212.354 554.685 213.273 553.359C214.193 552.034 214.652 549.87 214.652 546.87C214.652 542.485 213.471 538.468 211.108 534.818C208.744 531.169 206.031 528.474 202.968 526.736C199.818 524.948 197.082 524.629 194.764 525.779C192.444 526.93 190.935 529.369 190.235 533.101L169.757 515.287C170.893 510.769 172.6 507.238 174.876 504.686C177.151 502.135 179.842 500.449 182.95 499.632C186.055 498.814 189.448 498.791 193.123 499.556C196.799 500.326 200.56 501.799 204.412 503.985C208.525 506.319 212.528 509.282 216.423 512.869C220.317 516.458 223.796 520.558 226.859 525.168C229.922 529.778 232.394 534.772 234.277 540.146C236.158 545.52 237.099 551.138 237.099 556.996C237.099 563.775 235.632 568.658 232.702 571.645C229.768 574.632 226.027 575.64 221.477 574.666V575.182C224.103 577.473 226.509 580.128 228.698 583.146C230.884 586.163 232.767 589.35 234.343 592.706C235.917 596.062 237.142 599.507 238.018 603.04C238.892 606.571 239.331 610.056 239.331 613.492Z" fill="black" fill-opacity="0.2"/>
<path d="M239.331 613.492C239.331 620.137 238.301 625.308 236.245 629.007C234.189 632.708 231.498 635.189 228.172 636.452C224.846 637.716 221.105 637.94 216.949 637.127C212.791 636.313 208.568 634.691 204.281 632.258C200.081 629.874 195.989 626.921 192.008 623.399C188.024 619.876 184.394 615.896 181.112 611.453C177.83 607.009 174.963 602.056 172.513 596.595C170.063 591.134 168.224 585.187 167 578.755L187.478 583.322C188.352 587.835 190.147 592.381 192.861 596.958C195.572 601.538 199.031 605.02 203.231 607.403C204.807 608.298 206.402 608.917 208.022 609.261C209.641 609.607 211.085 609.538 212.354 609.054C213.622 608.568 214.672 607.589 215.505 606.11C216.336 604.632 216.752 602.46 216.752 599.592C216.752 596.496 216.204 593.603 215.111 590.919C214.015 588.232 212.572 585.779 210.78 583.558C208.985 581.335 206.95 579.319 204.675 577.513C202.399 575.704 200.123 574.155 197.849 572.865L191.941 569.512V548.521L198.374 552.172C200.475 553.364 202.486 554.304 204.413 554.994C206.337 555.683 208.065 555.915 209.598 555.687C211.128 555.459 212.354 554.685 213.273 553.359C214.193 552.034 214.652 549.87 214.652 546.87C214.652 542.485 213.471 538.468 211.108 534.818C208.744 531.169 206.031 528.474 202.968 526.736C199.818 524.948 197.082 524.629 194.764 525.779C192.444 526.93 190.935 529.369 190.235 533.101L169.757 515.287C170.893 510.769 172.6 507.238 174.876 504.686C177.151 502.135 179.842 500.449 182.95 499.632C186.055 498.814 189.448 498.791 193.123 499.556C196.799 500.326 200.56 501.799 204.412 503.985C208.525 506.319 212.528 509.282 216.423 512.869C220.317 516.458 223.796 520.558 226.859 525.168C229.922 529.778 232.394 534.772 234.277 540.146C236.158 545.52 237.099 551.138 237.099 556.996C237.099 563.775 235.632 568.658 232.702 571.645C229.768 574.632 226.027 575.64 221.477 574.666V575.182C224.103 577.473 226.509 580.128 228.698 583.146C230.884 586.163 232.767 589.35 234.343 592.706C235.917 596.062 237.142 599.507 238.018 603.04C238.892 606.571 239.331 610.056 239.331 613.492Z" fill="black" fill-opacity="0.2"/>
<path d="M239.331 613.492C239.331 620.137 238.301 625.308 236.245 629.007C234.189 632.708 231.498 635.189 228.172 636.452C224.846 637.716 221.105 637.94 216.949 637.127C212.791 636.313 208.568 634.691 204.281 632.258C200.081 629.874 195.989 626.921 192.008 623.399C188.024 619.876 184.394 615.896 181.112 611.453C177.83 607.009 174.963 602.056 172.513 596.595C170.063 591.134 168.224 585.187 167 578.755L187.478 583.322C188.352 587.835 190.147 592.381 192.861 596.958C195.572 601.538 199.031 605.02 203.231 607.403C204.807 608.298 206.402 608.917 208.022 609.261C209.641 609.607 211.085 609.538 212.354 609.054C213.622 608.568 214.672 607.589 215.505 606.11C216.336 604.632 216.752 602.46 216.752 599.592C216.752 596.496 216.204 593.603 215.111 590.919C214.015 588.232 212.572 585.779 210.78 583.558C208.985 581.335 206.95 579.319 204.675 577.513C202.399 575.704 200.123 574.155 197.849 572.865L191.941 569.512V548.521L198.374 552.172C200.475 553.364 202.486 554.304 204.413 554.994C206.337 555.683 208.065 555.915 209.598 555.687C211.128 555.459 212.354 554.685 213.273 553.359C214.193 552.034 214.652 549.87 214.652 546.87C214.652 542.485 213.471 538.468 211.108 534.818C208.744 531.169 206.031 528.474 202.968 526.736C199.818 524.948 197.082 524.629 194.764 525.779C192.444 526.93 190.935 529.369 190.235 533.101L169.757 515.287C170.893 510.769 172.6 507.238 174.876 504.686C177.151 502.135 179.842 500.449 182.95 499.632C186.055 498.814 189.448 498.791 193.123 499.556C196.799 500.326 200.56 501.799 204.412 503.985C208.525 506.319 212.528 509.282 216.423 512.869C220.317 516.458 223.796 520.558 226.859 525.168C229.922 529.778 232.394 534.772 234.277 540.146C236.158 545.52 237.099 551.138 237.099 556.996C237.099 563.775 235.632 568.658 232.702 571.645C229.768 574.632 226.027 575.64 221.477 574.666V575.182C224.103 577.473 226.509 580.128 228.698 583.146C230.884 586.163 232.767 589.35 234.343 592.706C235.917 596.062 237.142 599.507 238.018 603.04C238.892 606.571 239.331 610.056 239.331 613.492Z" fill="black" fill-opacity="0.2"/>
<path d="M239.331 613.492C239.331 620.137 238.301 625.308 236.245 629.007C234.189 632.708 231.498 635.189 228.172 636.452C224.846 637.716 221.105 637.94 216.949 637.127C212.791 636.313 208.568 634.691 204.281 632.258C200.081 629.874 195.989 626.921 192.008 623.399C188.024 619.876 184.394 615.896 181.112 611.453C177.83 607.009 174.963 602.056 172.513 596.595C170.063 591.134 168.224 585.187 167 578.755L187.478 583.322C188.352 587.835 190.147 592.381 192.861 596.958C195.572 601.538 199.031 605.02 203.231 607.403C204.807 608.298 206.402 608.917 208.022 609.261C209.641 609.607 211.085 609.538 212.354 609.054C213.622 608.568 214.672 607.589 215.505 606.11C216.336 604.632 216.752 602.46 216.752 599.592C216.752 596.496 216.204 593.603 215.111 590.919C214.015 588.232 212.572 585.779 210.78 583.558C208.985 581.335 206.95 579.319 204.675 577.513C202.399 575.704 200.123 574.155 197.849 572.865L191.941 569.512V548.521L198.374 552.172C200.475 553.364 202.486 554.304 204.413 554.994C206.337 555.683 208.065 555.915 209.598 555.687C211.128 555.459 212.354 554.685 213.273 553.359C214.193 552.034 214.652 549.87 214.652 546.87C214.652 542.485 213.471 538.468 211.108 534.818C208.744 531.169 206.031 528.474 202.968 526.736C199.818 524.948 197.082 524.629 194.764 525.779C192.444 526.93 190.935 529.369 190.235 533.101L169.757 515.287C170.893 510.769 172.6 507.238 174.876 504.686C177.151 502.135 179.842 500.449 182.95 499.632C186.055 498.814 189.448 498.791 193.123 499.556C196.799 500.326 200.56 501.799 204.412 503.985C208.525 506.319 212.528 509.282 216.423 512.869C220.317 516.458 223.796 520.558 226.859 525.168C229.922 529.778 232.394 534.772 234.277 540.146C236.158 545.52 237.099 551.138 237.099 556.996C237.099 563.775 235.632 568.658 232.702 571.645C229.768 574.632 226.027 575.64 221.477 574.666V575.182C224.103 577.473 226.509 580.128 228.698 583.146C230.884 586.163 232.767 589.35 234.343 592.706C235.917 596.062 237.142 599.507 238.018 603.04C238.892 606.571 239.331 610.056 239.331 613.492Z" fill="black" fill-opacity="0.2"/>
<path d="M324 656.672C324 664.129 322.993 670.009 320.981 674.314C318.966 678.619 316.275 681.595 312.908 683.238C309.537 684.881 305.709 685.375 301.422 684.719C297.132 684.062 292.712 682.444 288.163 679.862C283.963 677.478 279.959 674.488 276.151 670.895C272.345 667.301 268.887 663.304 265.781 658.901C262.674 654.501 260.005 649.746 257.774 644.637C255.542 639.528 253.901 634.266 252.851 628.853L272.936 632.165C273.897 636.956 275.713 641.484 278.383 645.752C281.052 650.019 284.225 653.197 287.9 655.282C291.662 657.417 294.923 657.778 297.681 656.359C300.437 654.943 301.815 651.307 301.815 645.458C301.815 639.608 301.245 638.597 300.109 635.543C298.97 632.488 297.504 629.737 295.712 627.284C293.917 624.834 291.882 622.675 289.607 620.808C287.33 618.945 285.055 617.365 282.781 616.075C279.454 614.187 275.669 612.529 271.426 611.094C267.18 609.66 263.396 608.802 260.071 608.52L262.303 540.108L319.274 572.44V597.215L281.862 575.983L281.074 594.804C282.473 595.142 284.028 595.706 285.735 596.503C287.441 597.3 288.994 598.095 290.395 598.89C295.032 601.522 299.407 604.808 303.522 608.748C307.634 612.69 311.201 617.149 314.221 622.132C317.24 627.115 319.623 632.51 321.375 638.322C323.124 644.131 324 650.249 324 656.672Z" fill="#222222"/>
<path d="M324 656.672C324 664.129 322.993 670.009 320.981 674.314C318.966 678.619 316.275 681.595 312.908 683.238C309.537 684.881 305.709 685.375 301.422 684.719C297.132 684.062 292.712 682.444 288.163 679.862C283.963 677.478 279.959 674.488 276.151 670.895C272.345 667.301 268.887 663.304 265.781 658.901C262.674 654.501 260.005 649.746 257.774 644.637C255.542 639.528 253.901 634.266 252.851 628.853L272.936 632.165C273.897 636.956 275.713 641.484 278.383 645.752C281.052 650.019 284.225 653.197 287.9 655.282C291.662 657.417 294.923 657.778 297.681 656.359C300.437 654.943 301.815 651.307 301.815 645.458C301.815 639.608 301.245 638.597 300.109 635.543C298.97 632.488 297.504 629.737 295.712 627.284C293.917 624.834 291.882 622.675 289.607 620.808C287.33 618.945 285.055 617.365 282.781 616.075C279.454 614.187 275.669 612.529 271.426 611.094C267.18 609.66 263.396 608.802 260.071 608.52L262.303 540.108L319.274 572.44V597.215L281.862 575.983L281.074 594.804C282.473 595.142 284.028 595.706 285.735 596.503C287.441 597.3 288.994 598.095 290.395 598.89C295.032 601.522 299.407 604.808 303.522 608.748C307.634 612.69 311.201 617.149 314.221 622.132C317.24 627.115 319.623 632.51 321.375 638.322C323.124 644.131 324 650.249 324 656.672Z" fill="black" fill-opacity="0.2"/>
<path d="M324 656.672C324 664.129 322.993 670.009 320.981 674.314C318.966 678.619 316.275 681.595 312.908 683.238C309.537 684.881 305.709 685.375 301.422 684.719C297.132 684.062 292.712 682.444 288.163 679.862C283.963 677.478 279.959 674.488 276.151 670.895C272.345 667.301 268.887 663.304 265.781 658.901C262.674 654.501 260.005 649.746 257.774 644.637C255.542 639.528 253.901 634.266 252.851 628.853L272.936 632.165C273.897 636.956 275.713 641.484 278.383 645.752C281.052 650.019 284.225 653.197 287.9 655.282C291.662 657.417 294.923 657.778 297.681 656.359C300.437 654.943 301.815 651.307 301.815 645.458C301.815 639.608 301.245 638.597 300.109 635.543C298.97 632.488 297.504 629.737 295.712 627.284C293.917 624.834 291.882 622.675 289.607 620.808C287.33 618.945 285.055 617.365 282.781 616.075C279.454 614.187 275.669 612.529 271.426 611.094C267.18 609.66 263.396 608.802 260.071 608.52L262.303 540.108L319.274 572.44V597.215L281.862 575.983L281.074 594.804C282.473 595.142 284.028 595.706 285.735 596.503C287.441 597.3 288.994 598.095 290.395 598.89C295.032 601.522 299.407 604.808 303.522 608.748C307.634 612.69 311.201 617.149 314.221 622.132C317.24 627.115 319.623 632.51 321.375 638.322C323.124 644.131 324 650.249 324 656.672Z" fill="black" fill-opacity="0.2"/>
<path d="M324 656.672C324 664.129 322.993 670.009 320.981 674.314C318.966 678.619 316.275 681.595 312.908 683.238C309.537 684.881 305.709 685.375 301.422 684.719C297.132 684.062 292.712 682.444 288.163 679.862C283.963 677.478 279.959 674.488 276.151 670.895C272.345 667.301 268.887 663.304 265.781 658.901C262.674 654.501 260.005 649.746 257.774 644.637C255.542 639.528 253.901 634.266 252.851 628.853L272.936 632.165C273.897 636.956 275.713 641.484 278.383 645.752C281.052 650.019 284.225 653.197 287.9 655.282C291.662 657.417 294.923 657.778 297.681 656.359C300.437 654.943 301.815 651.307 301.815 645.458C301.815 639.608 301.245 638.597 300.109 635.543C298.97 632.488 297.504 629.737 295.712 627.284C293.917 624.834 291.882 622.675 289.607 620.808C287.33 618.945 285.055 617.365 282.781 616.075C279.454 614.187 275.669 612.529 271.426 611.094C267.18 609.66 263.396 608.802 260.071 608.52L262.303 540.108L319.274 572.44V597.215L281.862 575.983L281.074 594.804C282.473 595.142 284.028 595.706 285.735 596.503C287.441 597.3 288.994 598.095 290.395 598.89C295.032 601.522 299.407 604.808 303.522 608.748C307.634 612.69 311.201 617.149 314.221 622.132C317.24 627.115 319.623 632.51 321.375 638.322C323.124 644.131 324 650.249 324 656.672Z" fill="black" fill-opacity="0.2"/>
<path d="M324 656.672C324 664.129 322.993 670.009 320.981 674.314C318.966 678.619 316.275 681.595 312.908 683.238C309.537 684.881 305.709 685.375 301.422 684.719C297.132 684.062 292.712 682.444 288.163 679.862C283.963 677.478 279.959 674.488 276.151 670.895C272.345 667.301 268.887 663.304 265.781 658.901C262.674 654.501 260.005 649.746 257.774 644.637C255.542 639.528 253.901 634.266 252.851 628.853L272.936 632.165C273.897 636.956 275.713 641.484 278.383 645.752C281.052 650.019 284.225 653.197 287.9 655.282C291.662 657.417 294.923 657.778 297.681 656.359C300.437 654.943 301.815 651.307 301.815 645.458C301.815 639.608 301.245 638.597 300.109 635.543C298.97 632.488 297.504 629.737 295.712 627.284C293.917 624.834 291.882 622.675 289.607 620.808C287.33 618.945 285.055 617.365 282.781 616.075C279.454 614.187 275.669 612.529 271.426 611.094C267.18 609.66 263.396 608.802 260.071 608.52L262.303 540.108L319.274 572.44V597.215L281.862 575.983L281.074 594.804C282.473 595.142 284.028 595.706 285.735 596.503C287.441 597.3 288.994 598.095 290.395 598.89C295.032 601.522 299.407 604.808 303.522 608.748C307.634 612.69 311.201 617.149 314.221 622.132C317.24 627.115 319.623 632.51 321.375 638.322C323.124 644.131 324 650.249 324 656.672Z" fill="black" fill-opacity="0.2"/>
</g>
<defs>
<linearGradient id="paint0_linear_465_116" x1="423.872" y1="48.0009" x2="416.039" y2="265.932" gradientUnits="userSpaceOnUse">
<stop stop-color="#EAEAEA"/>
<stop offset="1" stop-color="#EAEAEA" stop-opacity="0"/>
</linearGradient>
<linearGradient id="paint1_linear_465_116" x1="366.431" y1="394.01" x2="571.062" y2="630.745" gradientUnits="userSpaceOnUse">
<stop stop-opacity="0.12"/>
<stop offset="1" stop-opacity="0"/>
</linearGradient>
<linearGradient id="paint2_linear_465_116" x1="131.894" y1="276.061" x2="172.193" y2="623.484" gradientUnits="userSpaceOnUse">
<stop stop-opacity="0.12"/>
<stop offset="1" stop-opacity="0"/>
</linearGradient>
<clipPath id="clip0_465_116">
<rect width="342" height="182" fill="white" transform="translate(116 180)"/>
</clipPath>
<clipPath id="clip1_465_116">
<rect width="109.003" height="226.484" fill="white" transform="translate(364 350)"/>
</clipPath>
<clipPath id="clip2_465_116">
<rect width="105.37" height="148.971" fill="white" transform="translate(367.634 552.417)"/>
</clipPath>
<clipPath id="clip3_465_116">
<rect width="155" height="188" fill="white" transform="translate(169 342)"/>
</clipPath>
<clipPath id="clip4_465_116">
<rect width="157" height="186" fill="white" transform="translate(167 499)"/>
</clipPath>
</defs>
</svg>
