<svg width="684" height="380" viewBox="0 0 684 380" fill="none" xmlns="http://www.w3.org/2000/svg">
<g clip-path="url(#clip0_174_168)">
<path d="M398.381 289.071L375.999 302L358 224.315L381.501 210.74L388.589 256.161L388.962 255.945L396.609 202.012L419.829 188.599L428.13 233.319L428.503 233.104L435.683 179.441L458.438 166.296L440.067 264.991L417.684 277.92L408.359 233.543L407.986 233.759L398.381 289.071Z" fill="#5FD0F4"/>
<path d="M498.498 164.056C501.908 162.086 504.743 161.278 507.007 161.628C509.268 161.982 511.066 163.078 512.397 164.921C513.73 166.764 514.66 169.151 515.188 172.081C515.715 175.01 515.978 178.093 515.978 181.328V221.139L494.435 233.584V198.749C494.435 195.432 494.047 193.335 493.271 192.455C492.491 191.579 491.327 191.587 489.772 192.485C488.528 193.204 487.41 194.576 486.415 196.602C485.42 198.628 484.923 201.217 484.923 204.368V239.079L463.381 251.523V157.468L484.923 145.024V180.855L485.11 180.747C486.349 177.627 488.116 174.513 490.41 171.403C492.704 168.294 495.4 165.845 498.498 164.056Z" fill="#5FD0F4"/>
<path d="M576.688 153.972C576.688 155.05 576.671 156.159 576.642 157.295C576.61 158.433 576.562 159.394 576.501 160.176L543.487 179.247C543.55 180.373 543.845 181.239 544.374 181.844C544.902 182.453 545.554 182.864 546.333 183.077C547.109 183.293 547.979 183.288 548.944 183.062C549.907 182.838 550.886 182.437 551.881 181.863C553.871 180.713 555.534 179.276 556.871 177.549C558.207 175.825 559.216 174.184 559.902 172.627L575.196 174.117C573.018 180.102 569.865 185.656 565.73 190.781C561.594 195.909 556.793 200.051 551.321 203.211C547.778 205.259 544.328 206.504 540.971 206.95C537.612 207.398 534.644 206.895 532.065 205.439C529.484 203.987 527.416 201.512 525.862 198.012C524.307 194.516 523.531 189.863 523.531 184.056C523.531 178.665 524.246 173.38 525.675 168.199C527.105 163.019 529.047 158.208 531.504 153.76C533.959 149.315 536.851 145.301 540.177 141.72C543.502 138.142 547.063 135.254 550.855 133.064C554.71 130.837 558.222 129.701 561.394 129.651C564.564 129.604 567.284 130.522 569.554 132.402C571.822 134.285 573.579 137.065 574.823 140.741C576.066 144.421 576.688 148.83 576.688 153.972ZM558.13 155.362C558.13 153.04 557.491 151.501 556.219 150.742C554.943 149.986 553.217 150.237 551.042 151.494C548.679 152.858 546.846 154.788 545.541 157.283C544.234 159.78 543.487 161.996 543.302 163.927L558.13 155.362Z" fill="#5FD0F4"/>
<path d="M635.44 120.033C635.44 121.112 635.423 122.22 635.392 123.358C635.36 124.496 635.314 125.455 635.253 126.238L602.239 145.308C602.3 146.435 602.597 147.3 603.124 147.907C603.652 148.516 604.306 148.925 605.083 149.139C605.861 149.354 606.729 149.35 607.694 149.124C608.659 148.899 609.636 148.5 610.632 147.924C612.621 146.776 614.284 145.339 615.622 143.611C616.957 141.887 617.968 140.246 618.653 138.688L633.947 140.178C631.77 146.164 628.615 151.719 624.48 156.844C620.346 161.97 615.543 166.113 610.073 169.273C606.529 171.32 603.078 172.567 599.721 173.013C596.364 173.46 593.394 172.957 590.815 171.502C588.234 170.049 586.168 167.574 584.614 164.073C583.059 160.577 582.281 155.926 582.281 150.119C582.281 144.311 582.996 139.443 584.427 134.261C585.857 129.08 587.799 124.269 590.256 119.822C592.711 115.376 595.601 111.364 598.929 107.782C602.254 104.204 605.813 101.317 609.607 99.1251C613.462 96.8982 616.974 95.7621 620.144 95.7132C623.316 95.6656 626.034 96.5841 628.304 98.4641C630.574 100.347 632.329 103.128 633.573 106.804C634.818 110.483 635.44 114.892 635.44 120.033ZM616.881 121.423C616.881 119.101 616.243 117.562 614.969 116.805C613.693 116.048 611.969 116.298 609.794 117.555C607.429 118.921 605.596 120.851 604.291 123.346C602.985 125.841 602.239 128.057 602.052 129.989L616.881 121.423Z" fill="#5FD0F4"/>
<path d="M642.992 53.713L665 41V135.055L642.992 147.768V53.713Z" fill="#5FD0F4"/>
</g>
<g clip-path="url(#clip1_174_168)">
<path d="M202.553 142L212.123 147.542L222.563 189.407L212.766 183.734L211.366 177.661L202.856 172.732L201.532 177.228L192 171.707L202.553 142ZM207.206 157.191L205.012 164.774L209.362 167.293L207.206 157.191Z" fill="#5FD0F4"/>
<path d="M240.227 191.189C240.227 192.977 239.945 194.313 239.38 195.201C238.815 196.088 238.1 196.644 237.233 196.866C236.368 197.091 235.42 197.064 234.391 196.789C233.362 196.513 232.382 196.106 231.452 195.567C229.736 194.574 228.053 193.271 226.402 191.656C224.75 190.042 223.319 188.277 222.109 186.362L226.383 182.21C226.988 183.303 227.701 184.313 228.52 185.244C229.339 186.173 230.128 186.858 230.884 187.296C231.187 187.471 231.471 187.559 231.736 187.561C232 187.563 232.133 187.361 232.133 186.956C232.133 186.519 231.899 186.037 231.433 185.514C230.966 184.991 230.153 184.208 228.993 183.165C228.362 182.597 227.719 181.93 227.064 181.163C226.408 180.396 225.809 179.534 225.267 178.579C224.725 177.625 224.277 176.581 223.924 175.449C223.571 174.317 223.395 173.11 223.395 171.829C223.395 170.109 223.678 168.805 224.246 167.92C224.813 167.034 225.532 166.463 226.402 166.209C227.272 165.954 228.218 165.945 229.239 166.182C230.26 166.42 231.225 166.801 232.133 167.327C233.67 168.217 235.196 169.405 236.709 170.888C238.222 172.372 239.584 174.004 240.795 175.784L236.709 179.944C236.079 179.04 235.436 178.245 234.781 177.562C234.124 176.878 233.481 176.354 232.851 175.99C232.422 175.741 232.07 175.613 231.792 175.604C231.515 175.594 231.376 175.811 231.376 176.248C231.376 176.586 231.532 176.938 231.846 177.305C232.16 177.672 232.882 178.335 234.013 179.293C234.791 179.946 235.55 180.698 236.291 181.549C237.032 182.399 237.697 183.324 238.288 184.324C238.877 185.323 239.348 186.397 239.7 187.545C240.052 188.692 240.227 189.908 240.227 191.189Z" fill="#5FD0F4"/>
<path d="M243.367 163.208L252.294 168.379V206.626L243.367 201.456V163.208Z" fill="#5FD0F4"/>
<path d="M277.07 207.922C277.07 208.361 277.063 208.803 277.051 209.251C277.038 209.699 277.018 210.067 276.994 210.356L263.603 202.601C263.629 203.089 263.749 203.58 263.963 204.075C264.177 204.57 264.441 205.043 264.758 205.496C265.072 205.949 265.425 206.355 265.817 206.717C266.207 207.078 266.605 207.375 267.008 207.608C267.814 208.076 268.489 208.273 269.032 208.199C269.574 208.126 269.983 207.933 270.261 207.621L276.464 215.412C275.582 216.824 274.302 217.601 272.625 217.742C270.948 217.884 268.999 217.312 266.781 216.027C265.343 215.195 263.944 214.081 262.582 212.685C261.221 211.289 260.016 209.69 258.97 207.887C257.923 206.083 257.084 204.105 256.455 201.953C255.824 199.799 255.509 197.543 255.509 195.182C255.509 192.99 255.798 191.176 256.378 189.741C256.959 188.306 257.747 187.263 258.743 186.607C259.738 185.953 260.911 185.68 262.26 185.786C263.609 185.894 265.053 186.392 266.591 187.283C268.155 188.189 269.58 189.377 270.866 190.847C272.152 192.317 273.255 193.968 274.176 195.799C275.096 197.631 275.809 199.586 276.313 201.665C276.818 203.746 277.07 205.831 277.07 207.922ZM269.542 199.767C269.542 198.823 269.283 197.898 268.767 196.991C268.25 196.086 267.55 195.376 266.668 194.866C265.709 194.31 264.965 194.234 264.436 194.635C263.906 195.037 263.603 195.587 263.528 196.284L269.542 199.767Z" fill="#5FD0F4"/>
<path d="M300.9 221.723C300.9 222.161 300.893 222.604 300.88 223.052C300.867 223.5 300.848 223.868 300.823 224.157L287.433 216.402C287.458 216.889 287.578 217.381 287.792 217.875C288.006 218.371 288.271 218.844 288.587 219.297C288.902 219.75 289.254 220.156 289.646 220.518C290.036 220.878 290.434 221.176 290.837 221.409C291.644 221.876 292.319 222.074 292.861 222C293.403 221.927 293.813 221.734 294.09 221.422L300.294 229.213C299.411 230.625 298.131 231.402 296.455 231.543C294.778 231.685 292.829 231.113 290.61 229.828C289.173 228.995 287.774 227.882 286.412 226.485C285.05 225.09 283.846 223.491 282.799 221.687C281.753 219.884 280.914 217.906 280.284 215.753C279.653 213.6 279.338 211.344 279.338 208.983C279.338 206.622 279.628 204.977 280.208 203.542C280.788 202.107 281.576 201.064 282.572 200.408C283.568 199.754 284.741 199.481 286.09 199.587C287.439 199.694 288.883 200.193 290.421 201.084C291.985 201.989 293.409 203.178 294.696 204.648C295.982 206.118 297.085 207.768 298.005 209.599C298.926 211.431 299.638 213.387 300.142 215.466C300.647 217.547 300.9 219.631 300.9 221.723ZM293.372 213.568C293.372 212.624 293.113 211.698 292.597 210.792C292.08 209.886 291.379 209.177 290.497 208.666C289.538 208.111 288.795 208.035 288.265 208.436C287.736 208.838 287.433 209.388 287.357 210.085L293.372 213.568Z" fill="#5FD0F4"/>
<path d="M317.959 245.363C316.975 244.793 316.005 243.986 315.047 242.943C314.088 241.899 313.307 240.764 312.701 239.536L312.626 239.492V253.708L303.963 248.691V209.938L312.172 214.692V217.373L312.247 217.417C312.978 216.728 313.861 216.396 314.895 216.422C315.929 216.447 316.938 216.744 317.921 217.314C319.409 218.175 320.72 219.339 321.855 220.807C322.99 222.273 323.935 223.883 324.692 225.636C325.448 227.39 326.022 229.206 326.413 231.086C326.804 232.964 327 234.765 327 236.484C327 238.238 326.804 239.845 326.413 241.305C326.022 242.765 325.448 243.942 324.692 244.835C323.935 245.73 322.996 246.256 321.875 246.416C320.752 246.576 319.447 246.225 317.959 245.363ZM318.905 231.796C318.905 230.616 318.627 229.426 318.073 228.228C317.518 227.03 316.711 226.123 315.652 225.51C314.617 224.911 313.792 224.872 313.174 225.391C312.556 225.91 312.247 226.76 312.247 227.941C312.247 229.188 312.556 230.43 313.174 231.664C313.792 232.9 314.617 233.815 315.652 234.414C316.711 235.028 317.518 235.065 318.073 234.527C318.627 233.987 318.905 233.078 318.905 231.796Z" fill="#5FD0F4"/>
<path d="M219.007 231.159C219.007 230.35 218.799 229.631 218.383 229.002C217.967 228.374 217.419 227.862 216.738 227.467C215.93 227 215.168 226.786 214.45 226.826C213.731 226.864 213.094 227.026 212.539 227.312L208.189 219.026C209.4 218.176 210.837 217.811 212.501 217.931C214.166 218.052 215.88 218.623 217.646 219.646C219.537 220.741 221.1 222 222.336 223.424C223.571 224.848 224.549 226.393 225.268 228.056C225.986 229.721 226.49 231.463 226.781 233.283C227.071 235.104 227.215 236.942 227.215 238.797V252.811L219.31 248.232V246.108L219.234 246.064C218.73 246.784 218.011 247.093 217.079 246.99C216.145 246.888 215.237 246.582 214.355 246.071C213.573 245.618 212.772 245.003 211.953 244.225C211.133 243.446 210.389 242.526 209.721 241.465C209.053 240.403 208.504 239.209 208.076 237.881C207.647 236.553 207.433 235.098 207.433 233.512C207.433 231.658 207.792 230.356 208.511 229.608C209.23 228.861 210.143 228.479 211.253 228.464C212.363 228.449 213.604 228.722 214.979 229.282C216.353 229.842 217.696 230.502 219.007 231.261L219.007 231.159ZM219.083 237.072C217.797 236.327 216.763 235.914 215.981 235.832C215.199 235.75 214.809 236.216 214.809 237.228C214.809 238.239 214.871 237.946 214.998 238.273C215.124 238.599 215.288 238.905 215.489 239.189C215.691 239.476 215.912 239.73 216.151 239.952C216.391 240.176 216.611 240.346 216.814 240.463C217.646 240.945 218.314 240.977 218.818 240.562C219.323 240.145 219.575 239.381 219.575 238.268V237.357L219.083 237.072Z" fill="#5FD0F4"/>
<path d="M239.093 260.397C236.419 258.849 234.44 256.936 233.154 254.656C231.868 252.377 231.225 249.618 231.225 246.38V236.869L228.426 235.248V226.9L231.187 228.5V222.53L239.66 227.437V233.407L243.972 235.904V244.251L239.66 241.754V248.837C239.66 250.119 239.868 251.107 240.284 251.804C240.701 252.5 241.274 253.06 242.006 253.484C242.283 253.644 242.573 253.779 242.875 253.886C243.178 253.995 243.417 254.065 243.594 254.1V262.093C243.14 262.1 242.503 261.95 241.684 261.645C240.864 261.339 240.001 260.923 239.093 260.397Z" fill="#5FD0F4"/>
<path d="M264.473 275.097C261.8 273.548 259.82 271.635 258.534 269.356C257.248 267.076 256.605 264.317 256.605 261.08V251.568L253.806 249.947V241.6L256.567 243.199V237.229L265.04 242.136V248.106L269.352 250.603V258.951L265.04 256.453V263.536C265.04 264.818 265.248 265.806 265.665 266.503C266.081 267.2 266.654 267.759 267.386 268.183C267.663 268.343 267.953 268.478 268.256 268.586C268.558 268.694 268.798 268.765 268.975 268.799V276.793C268.52 276.799 267.883 276.649 267.064 276.344C266.245 276.038 265.381 275.622 264.473 275.097Z" fill="#5FD0F4"/>
<path d="M285.98 259.524C287.363 260.325 288.513 261.329 289.431 262.535C290.348 263.741 291.078 265.031 291.618 266.406C292.158 267.781 292.535 269.19 292.749 270.629C292.963 272.067 293.07 273.445 293.07 274.76V290.95L284.332 285.889V271.723C284.332 270.375 284.175 269.339 283.859 268.617C283.543 267.895 283.071 267.35 282.441 266.985C281.936 266.693 281.482 266.726 281.079 267.083C280.675 267.439 280.474 268.259 280.474 269.54V283.655L271.736 278.594V240.347L280.474 245.408V259.978L280.549 260.022C281.052 259.335 281.769 258.899 282.699 258.712C283.63 258.525 284.722 258.796 285.98 259.524Z" fill="#5FD0F4"/>
<path d="M317.695 292.159C317.695 292.597 317.688 293.04 317.676 293.488C317.663 293.936 317.643 294.304 317.619 294.593L304.228 286.838C304.254 287.325 304.374 287.817 304.588 288.311C304.802 288.807 305.066 289.28 305.383 289.733C305.697 290.186 306.05 290.592 306.442 290.954C306.832 291.314 307.23 291.612 307.633 291.845C308.439 292.312 309.114 292.51 309.657 292.436C310.199 292.363 310.608 292.17 310.886 291.858L317.089 299.649C316.207 301.061 314.927 301.838 313.25 301.979C311.573 302.121 309.624 301.549 307.406 300.264C305.968 299.432 304.569 298.318 303.207 296.921C301.846 295.526 300.641 293.927 299.595 292.123C298.548 290.32 297.709 288.342 297.08 286.189C296.449 284.036 296.134 281.78 296.134 279.419C296.134 277.226 296.423 275.413 297.003 273.978C297.584 272.543 298.372 271.5 299.368 270.844C300.363 270.19 301.536 269.917 302.885 270.023C304.234 270.13 305.678 270.629 307.216 271.52C308.78 272.425 310.205 273.614 311.491 275.084C312.777 276.554 313.88 278.204 314.801 280.035C315.721 281.867 316.434 283.823 316.938 285.902C317.443 287.983 317.695 290.067 317.695 292.159ZM310.167 284.004C310.167 283.06 309.908 282.134 309.392 281.228C308.875 280.322 308.175 279.613 307.293 279.102C306.334 278.547 305.59 278.471 305.061 278.872C304.531 279.274 304.228 279.824 304.153 280.521L310.167 284.004Z" fill="#5FD0F4"/>
</g>
<defs>
<clipPath id="clip0_174_168">
<rect width="307" height="261" fill="white" transform="translate(358 41)"/>
</clipPath>
<clipPath id="clip1_174_168">
<rect width="135" height="160" fill="white" transform="translate(192 142)"/>
</clipPath>
</defs>
</svg>
